ISO-10303-21;
HEADER;
FILE_DESCRIPTION (( 'STEP AP203' ),
    '1' );
FILE_NAME ('¸Ç×Ó2.STEP',
    '2025-12-08T11:25:28',
    ( '' ),
    ( '' ),
    'SwSTEP 2.0',
    'SolidWorks 2025',
    '' );
FILE_SCHEMA (( 'CONFIG_CONTROL_DESIGN' ));
ENDSEC;

DATA;
#1 = FACE_OUTER_BOUND ( 'NONE', #614, .T. ) ;
#2 = CARTESIAN_POINT ( 'NONE',  ( 12.24999999999989875, 8.500000000000174083, 230.0000000000000000 ) ) ;
#3 = EDGE_CURVE ( 'NONE', #452, #269, #389, .T. ) ;
#4 = DIRECTION ( 'NONE',  ( 0.000000000000000000, 0.000000000000000000, -1.000000000000000000 ) ) ;
#5 = ORIENTED_EDGE ( 'NONE', *, *, #226, .T. ) ;
#6 = CARTESIAN_POINT ( 'NONE',  ( 9.999999999999896971, 8.500000000000174083, 0.000000000000000000 ) ) ;
#7 = DIRECTION ( 'NONE',  ( -0.000000000000000000, -0.000000000000000000, -1.000000000000000000 ) ) ;
#8 = FACE_OUTER_BOUND ( 'NONE', #820, .T. ) ;
#9 = DIRECTION ( 'NONE',  ( 1.000000000000000000, 0.000000000000000000, -0.000000000000000000 ) ) ;
#10 = DIRECTION ( 'NONE',  ( -0.000000000000000000, -1.000000000000000000, -0.000000000000000000 ) ) ;
#11 = ORIENTED_EDGE ( 'NONE', *, *, #305, .T. ) ;
#12 = DIRECTION ( 'NONE',  ( 1.000000000000000000, 0.000000000000000000, 0.000000000000000000 ) ) ;
#13 = EDGE_CURVE ( 'NONE', #768, #423, #585, .T. ) ;
#14 = DIRECTION ( 'NONE',  ( -1.000000000000000000, 0.000000000000000000, 0.000000000000000000 ) ) ;
#15 = ADVANCED_BREP_SHAPE_REPRESENTATION ( '\X2\76d65b50\X0\2', ( #763, #196 ), #725 ) ;
#16 = CARTESIAN_POINT ( 'NONE',  ( 230.0000000000000000, 18.00000000000000000, 0.000000000000000000 ) ) ;
#17 = ORIENTED_EDGE ( 'NONE', *, *, #459, .T. ) ;
#18 = DATE_AND_TIME ( #742, #629 ) ;
#19 = DIRECTION ( 'NONE',  ( 0.000000000000000000, 0.000000000000000000, 1.000000000000000000 ) ) ;
#20 = AXIS2_PLACEMENT_3D ( 'NONE', #774, #4, #450 ) ;
#21 = ORIENTED_EDGE ( 'NONE', *, *, #556, .T. ) ;
#22 =( NAMED_UNIT ( * ) SI_UNIT ( $, .STERADIAN. ) SOLID_ANGLE_UNIT ( ) );
#23 = AXIS2_PLACEMENT_3D ( 'NONE', #324, #579, #842 ) ;
#24 = LINE ( 'NONE', #622, #811 ) ;
#25 = EDGE_CURVE ( 'NONE', #475, #507, #57, .T. ) ;
#26 = VECTOR ( 'NONE', #44, 1000.000000000000000 ) ;
#27 = ORIENTED_EDGE ( 'NONE', *, *, #602, .T. ) ;
#28 = CARTESIAN_POINT ( 'NONE',  ( 0.000000000000000000, 0.000000000000000000, 0.000000000000000000 ) ) ;
#29 = CARTESIAN_POINT ( 'NONE',  ( 195.0000000000000000, -8.000000000000000000, -9.899999999999986144 ) ) ;
#30 = EDGE_CURVE ( 'NONE', #290, #681, #67, .T. ) ;
#31 = ORIENTED_EDGE ( 'NONE', *, *, #459, .F. ) ;
#32 = COORDINATED_UNIVERSAL_TIME_OFFSET ( 8, 0, .AHEAD. ) ;
#33 = DIRECTION ( 'NONE',  ( -0.000000000000000000, -1.000000000000000000, -0.000000000000000000 ) ) ;
#34 = CARTESIAN_POINT ( 'NONE',  ( 190.0000000000000000, 0.000000000000000000, 3.000000000000000000 ) ) ;
#35 = ORIENTED_EDGE ( 'NONE', *, *, #745, .T. ) ;
#36 = EDGE_CURVE ( 'NONE', #520, #770, #796, .T. ) ;
#37 = VECTOR ( 'NONE', #428, 1000.000000000000000 ) ;
#38 = PLANE ( 'NONE',  #838 ) ;
#39 = DIRECTION ( 'NONE',  ( 0.000000000000000000, 0.000000000000000000, -1.000000000000000000 ) ) ;
#40 = VECTOR ( 'NONE', #189, 1000.000000000000000 ) ;
#41 = ORIENTED_EDGE ( 'NONE', *, *, #739, .F. ) ;
#42 = CARTESIAN_POINT ( 'NONE',  ( 230.0000000000000000, -8.000000000000001776, -17.00000000000000000 ) ) ;
#43 = EDGE_CURVE ( 'NONE', #390, #282, #495, .T. ) ;
#44 = DIRECTION ( 'NONE',  ( -0.000000000000000000, -1.000000000000000000, 8.673617379884034239E-17 ) ) ;
#45 = ORIENTED_EDGE ( 'NONE', *, *, #226, .F. ) ;
#46 = DIRECTION ( 'NONE',  ( 1.000000000000000000, 0.000000000000000000, 0.000000000000000000 ) ) ;
#47 = ORIENTED_EDGE ( 'NONE', *, *, #215, .T. ) ;
#48 = CIRCLE ( 'NONE', #464, 1.899999999999985034 ) ;
#49 = CARTESIAN_POINT ( 'NONE',  ( 9.999999999999896971, 8.500000000000174083, 3.000000000000002665 ) ) ;
#50 = CARTESIAN_POINT ( 'NONE',  ( 0.000000000000000000, 0.000000000000000000, 3.000000000000000000 ) ) ;
#51 = AXIS2_PLACEMENT_3D ( 'NONE', #149, #70, #406 ) ;
#52 = EDGE_CURVE ( 'NONE', #623, #181, #518, .T. ) ;
#53 = VERTEX_POINT ( 'NONE', #726 ) ;
#54 = CARTESIAN_POINT ( 'NONE',  ( 0.000000000000000000, 0.000000000000000000, 0.000000000000000000 ) ) ;
#55 = DIRECTION ( 'NONE',  ( 0.000000000000000000, 1.000000000000000000, 0.000000000000000000 ) ) ;
#56 = EDGE_CURVE ( 'NONE', #330, #386, #335, .T. ) ;
#57 = LINE ( 'NONE', #263, #372 ) ;
#58 = ORIENTED_EDGE ( 'NONE', *, *, #613, .T. ) ;
#59 = DIRECTION ( 'NONE',  ( 0.000000000000000000, 0.000000000000000000, -1.000000000000000000 ) ) ;
#60 = ORIENTED_EDGE ( 'NONE', *, *, #343, .F. ) ;
#61 = ORIENTED_EDGE ( 'NONE', *, *, #734, .F. ) ;
#62 = DIRECTION ( 'NONE',  ( 0.000000000000000000, -0.5150380749100550437, -0.8571673007021117785 ) ) ;
#63 = EDGE_CURVE ( 'NONE', #741, #386, #48, .T. ) ;
#64 = AXIS2_PLACEMENT_3D ( 'NONE', #180, #567, #280 ) ;
#65 = CARTESIAN_POINT ( 'NONE',  ( 161.7499999999998010, 8.499999999999882760, 3.000000000000002665 ) ) ;
#66 = VECTOR ( 'NONE', #644, 1000.000000000000000 ) ;
#67 = LINE ( 'NONE', #471, #548 ) ;
#68 = CARTESIAN_POINT ( 'NONE',  ( 223.0000000000000000, -1.658364823847645386, -8.000000000000001776 ) ) ;
#69 = CC_DESIGN_DATE_AND_TIME_ASSIGNMENT ( #125, #115, ( #617 ) ) ;
#70 = DIRECTION ( 'NONE',  ( 0.000000000000000000, -1.000000000000000000, 0.000000000000000000 ) ) ;
#71 = EDGE_LOOP ( 'NONE', ( #237, #776, #557, #784 ) ) ;
#72 = ORIENTED_EDGE ( 'NONE', *, *, #52, .F. ) ;
#73 = CARTESIAN_POINT ( 'NONE',  ( 163.9999999999998010, 8.499999999999882760, 3.000000000000002665 ) ) ;
#74 = DIRECTION ( 'NONE',  ( -1.000000000000000000, 0.000000000000000000, 0.000000000000000000 ) ) ;
#75 = DIRECTION ( 'NONE',  ( 0.000000000000000000, 0.000000000000000000, -1.000000000000000000 ) ) ;
#76 = ORIENTED_EDGE ( 'NONE', *, *, #299, .F. ) ;
#77 = DIRECTION ( 'NONE',  ( -0.000000000000000000, -1.000000000000000000, -0.000000000000000000 ) ) ;
#78 = LINE ( 'NONE', #211, #120 ) ;
#79 = CC_DESIGN_APPROVAL ( #314, ( #617 ) ) ;
#80 = AXIS2_PLACEMENT_3D ( 'NONE', #85, #166, #815 ) ;
#81 = FACE_OUTER_BOUND ( 'NONE', #788, .T. ) ;
#82 = EDGE_CURVE ( 'NONE', #227, #806, #95, .T. ) ;
#83 = ORIENTED_EDGE ( 'NONE', *, *, #100, .T. ) ;
#84 = VECTOR ( 'NONE', #99, 1000.000000000000000 ) ;
#85 = CARTESIAN_POINT ( 'NONE',  ( 223.0000000000000000, -2.800000000000003819, -8.000000000000001776 ) ) ;
#86 = DIRECTION ( 'NONE',  ( -1.000000000000000000, 0.000000000000000000, 0.000000000000000000 ) ) ;
#87 = CARTESIAN_POINT ( 'NONE',  ( 230.0000000000000000, 0.000000000000000000, -17.00000000000000000 ) ) ;
#88 = EDGE_CURVE ( 'NONE', #286, #421, #597, .T. ) ;
#89 = EDGE_LOOP ( 'NONE', ( #628, #412 ) ) ;
#90 = PERSON_AND_ORGANIZATION ( #91, #96 ) ;
#91 = PERSON ( 'æœª', 'æœª', 'æœª', ('æœª'), ('æœª'), ('æœª') ) ;
#92 = EDGE_LOOP ( 'NONE', ( #555, #637, #688, #672 ) ) ;
#93 = CARTESIAN_POINT ( 'NONE',  ( 195.0000000000000000, -2.800000000000003819, -8.000000000000001776 ) ) ;
#94 = EDGE_CURVE ( 'NONE', #394, #568, #572, .T. ) ;
#95 = CIRCLE ( 'NONE', #752, 1.899999999999985034 ) ;
#96 = ORGANIZATION ( 'æœª', 'æœª', '' ) ;
#97 = ORIENTED_EDGE ( 'NONE', *, *, #122, .T. ) ;
#98 = FACE_OUTER_BOUND ( 'NONE', #737, .T. ) ;
#99 = DIRECTION ( 'NONE',  ( -0.000000000000000000, -1.000000000000000000, -0.000000000000000000 ) ) ;
#100 = EDGE_CURVE ( 'NONE', #53, #661, #150, .T. ) ;
#101 = ORIENTED_EDGE ( 'NONE', *, *, #43, .T. ) ;
#102 = APPROVAL_ROLE ( '' ) ;
#103 = PLANE ( 'NONE',  #658 ) ;
#104 = ORIENTED_EDGE ( 'NONE', *, *, #745, .F. ) ;
#105 = CALENDAR_DATE ( 2025, 8, 12 ) ;
#106 = DIRECTION ( 'NONE',  ( 0.000000000000000000, 1.000000000000000000, -0.000000000000000000 ) ) ;
#107 = AXIS2_PLACEMENT_3D ( 'NONE', #403, #322, #129 ) ;
#108 = APPROVAL ( #699, 'æœª' ) ;
#109 = ORIENTED_EDGE ( 'NONE', *, *, #128, .F. ) ;
#110 = PRODUCT_DEFINITION_FORMATION_WITH_SPECIFIED_SOURCE ( 'ä»', '', #851, .NOT_KNOWN. ) ;
#111 = CIRCLE ( 'NONE', #318, 1.899999999999985034 ) ;
#112 = DIRECTION ( 'NONE',  ( 0.000000000000000000, 0.000000000000000000, -1.000000000000000000 ) ) ;
#113 = VECTOR ( 'NONE', #262, 1000.000000000000000 ) ;
#114 = ORIENTED_EDGE ( 'NONE', *, *, #527, .T. ) ;
#115 = DATE_TIME_ROLE ( 'classification_date' ) ;
#116 = DIRECTION ( 'NONE',  ( 1.000000000000000000, 0.000000000000000000, 0.000000000000000000 ) ) ;
#117 = LINE ( 'NONE', #329, #163 ) ;
#118 = ORIENTED_EDGE ( 'NONE', *, *, #692, .T. ) ;
#119 = PERSON_AND_ORGANIZATION ( #91, #96 ) ;
#120 = VECTOR ( 'NONE', #221, 1000.000000000000000 ) ;
#121 = DIRECTION ( 'NONE',  ( 0.000000000000000000, 0.000000000000000000, -1.000000000000000000 ) ) ;
#122 = EDGE_CURVE ( 'NONE', #845, #246, #260, .T. ) ;
#123 = FACE_OUTER_BOUND ( 'NONE', #598, .T. ) ;
#124 = ORIENTED_EDGE ( 'NONE', *, *, #734, .T. ) ;
#125 = DATE_AND_TIME ( #105, #279 ) ;
#126 = VECTOR ( 'NONE', #659, 1000.000000000000000 ) ;
#127 = CARTESIAN_POINT ( 'NONE',  ( 0.000000000000000000, 18.00000000000000000, 0.000000000000000000 ) ) ;
#128 = EDGE_CURVE ( 'NONE', #161, #421, #289, .T. ) ;
#129 = DIRECTION ( 'NONE',  ( -1.000000000000000000, 0.000000000000000000, 0.000000000000000000 ) ) ;
#130 = ORIENTED_EDGE ( 'NONE', *, *, #94, .T. ) ;
#131 = CARTESIAN_POINT ( 'NONE',  ( 230.0000000000000000, 0.000000000000000000, 0.000000000000000000 ) ) ;
#132 = CARTESIAN_POINT ( 'NONE',  ( 144.9999999999999147, 8.499999999999911182, 3.000000000000002665 ) ) ;
#133 = DIRECTION ( 'NONE',  ( 0.000000000000000000, 0.000000000000000000, -1.000000000000000000 ) ) ;
#134 = EDGE_CURVE ( 'NONE', #760, #475, #805, .T. ) ;
#135 = LINE ( 'NONE', #265, #144 ) ;
#136 = CARTESIAN_POINT ( 'NONE',  ( 9.999999999999896971, 8.500000000000174083, 0.000000000000000000 ) ) ;
#137 = DIRECTION ( 'NONE',  ( 0.000000000000000000, -0.5150380749100550437, -0.8571673007021117785 ) ) ;
#138 = EDGE_CURVE ( 'NONE', #181, #290, #301, .T. ) ;
#139 = VERTEX_POINT ( 'NONE', #559 ) ;
#140 = CARTESIAN_POINT ( 'NONE',  ( 195.0000000000000000, -8.000000000000000000, -8.000000000000001776 ) ) ;
#141 = CIRCLE ( 'NONE', #64, 1.899999999999985034 ) ;
#142 = DIRECTION ( 'NONE',  ( 0.000000000000000000, 0.000000000000000000, -1.000000000000000000 ) ) ;
#143 = VECTOR ( 'NONE', #685, 1000.000000000000000 ) ;
#144 = VECTOR ( 'NONE', #662, 1000.000000000000000 ) ;
#145 = VECTOR ( 'NONE', #401, 1000.000000000000000 ) ;
#146 = DIRECTION ( 'NONE',  ( -0.000000000000000000, -1.000000000000000000, -0.000000000000000000 ) ) ;
#147 = ORIENTED_EDGE ( 'NONE', *, *, #583, .F. ) ;
#148 = DIRECTION ( 'NONE',  ( 1.000000000000000000, 0.000000000000000000, 0.000000000000000000 ) ) ;
#149 = CARTESIAN_POINT ( 'NONE',  ( 0.000000000000000000, 18.00000000000000000, 0.000000000000000000 ) ) ;
#150 = LINE ( 'NONE', #275, #686 ) ;
#151 = ORIENTED_EDGE ( 'NONE', *, *, #281, .T. ) ;
#152 = FACE_OUTER_BOUND ( 'NONE', #549, .T. ) ;
#153 = ADVANCED_FACE ( 'NONE', ( #176 ), #411, .T. ) ;
#154 = DIRECTION ( 'NONE',  ( -0.000000000000000000, 8.673617379884034239E-17, 1.000000000000000000 ) ) ;
#155 = VERTEX_POINT ( 'NONE', #344 ) ;
#156 = FACE_OUTER_BOUND ( 'NONE', #780, .T. ) ;
#157 = DIRECTION ( 'NONE',  ( 0.000000000000000000, 0.000000000000000000, -1.000000000000000000 ) ) ;
#158 = CC_DESIGN_PERSON_AND_ORGANIZATION_ASSIGNMENT ( #179, #379, ( #110 ) ) ;
#159 = CIRCLE ( 'NONE', #23, 1.899999999999985034 ) ;
#160 = CARTESIAN_POINT ( 'NONE',  ( 195.0000000000000000, -2.800000000000003819, -6.100000000000016520 ) ) ;
#161 = VERTEX_POINT ( 'NONE', #542 ) ;
#162 = FACE_BOUND ( 'NONE', #374, .T. ) ;
#163 = VECTOR ( 'NONE', #516, 1000.000000000000000 ) ;
#164 = ADVANCED_FACE ( 'NONE', ( #81 ), #371, .F. ) ;
#165 = ORIENTED_EDGE ( 'NONE', *, *, #361, .F. ) ;
#166 = DIRECTION ( 'NONE',  ( -0.000000000000000000, -1.000000000000000000, -0.000000000000000000 ) ) ;
#167 = ORIENTED_EDGE ( 'NONE', *, *, #43, .F. ) ;
#168 = LINE ( 'NONE', #422, #143 ) ;
#169 = AXIS2_PLACEMENT_3D ( 'NONE', #666, #10, #75 ) ;
#170 = EDGE_LOOP ( 'NONE', ( #60, #523, #83, #264 ) ) ;
#171 = APPLICATION_PROTOCOL_DEFINITION ( 'international standard', 'config_control_design', 1994, #402 ) ;
#172 = CARTESIAN_POINT ( 'NONE',  ( 144.9999999999999147, 8.499999999999911182, 3.000000000000002665 ) ) ;
#173 = CYLINDRICAL_SURFACE ( 'NONE', #550, 2.250000000000001776 ) ;
#174 = EDGE_LOOP ( 'NONE', ( #316, #834, #486, #560 ) ) ;
#175 = DIRECTION ( 'NONE',  ( 0.000000000000000000, 0.000000000000000000, -1.000000000000000000 ) ) ;
#176 = FACE_OUTER_BOUND ( 'NONE', #170, .T. ) ;
#177 = EDGE_CURVE ( 'NONE', #806, #227, #141, .T. ) ;
#178 = ORIENTED_EDGE ( 'NONE', *, *, #63, .T. ) ;
#179 = PERSON_AND_ORGANIZATION ( #91, #96 ) ;
#180 = CARTESIAN_POINT ( 'NONE',  ( 223.0000000000000000, -8.000000000000001776, -8.000000000000001776 ) ) ;
#181 = VERTEX_POINT ( 'NONE', #34 ) ;
#182 = PERSON_AND_ORGANIZATION ( #91, #96 ) ;
#183 = LOCAL_TIME ( 19, 25, 28.00000000000000000, #481 ) ;
#184 = VECTOR ( 'NONE', #77, 1000.000000000000000 ) ;
#185 = CARTESIAN_POINT ( 'NONE',  ( 163.9999999999998010, 8.499999999999882760, 0.000000000000000000 ) ) ;
#186 = CARTESIAN_POINT ( 'NONE',  ( 7.749999999999897859, 8.500000000000174083, 230.0000000000000000 ) ) ;
#187 = ORIENTED_EDGE ( 'NONE', *, *, #634, .T. ) ;
#188 = PERSON_AND_ORGANIZATION ( #91, #96 ) ;
#189 = DIRECTION ( 'NONE',  ( 1.000000000000000000, 0.000000000000000000, 0.000000000000000000 ) ) ;
#190 = ORIENTED_EDGE ( 'NONE', *, *, #281, .F. ) ;
#191 = ADVANCED_FACE ( 'NONE', ( #502 ), #173, .F. ) ;
#192 = LINE ( 'NONE', #259, #700 ) ;
#193 = CIRCLE ( 'NONE', #667, 2.250000000000001776 ) ;
#194 = ORIENTED_EDGE ( 'NONE', *, *, #730, .F. ) ;
#195 = CARTESIAN_POINT ( 'NONE',  ( 142.7499999999999147, 8.499999999999911182, 3.000000000000002665 ) ) ;
#196 = AXIS2_PLACEMENT_3D ( 'NONE', #28, #234, #12 ) ;
#197 = AXIS2_PLACEMENT_3D ( 'NONE', #172, #175, #488 ) ;
#198 = DIRECTION ( 'NONE',  ( 0.000000000000000000, -1.000000000000000000, 8.673617379884034239E-17 ) ) ;
#199 = UNCERTAINTY_MEASURE_WITH_UNIT (LENGTH_MEASURE( 1.000000000000000082E-05 ), #238, 'distance_accuracy_value', 'NONE');
#200 = ORIENTED_EDGE ( 'NONE', *, *, #602, .F. ) ;
#201 = EDGE_LOOP ( 'NONE', ( #719, #698, #109, #233 ) ) ;
#202 = DIRECTION ( 'NONE',  ( 0.000000000000000000, -1.000000000000000000, 0.000000000000000000 ) ) ;
#203 = ORIENTED_EDGE ( 'NONE', *, *, #573, .F. ) ;
#204 = ORIENTED_EDGE ( 'NONE', *, *, #783, .F. ) ;
#205 = CARTESIAN_POINT ( 'NONE',  ( 223.0000000000000000, -8.000000000000000000, -6.100000000000016520 ) ) ;
#206 = DIRECTION ( 'NONE',  ( -1.000000000000000000, 0.000000000000000000, 0.000000000000000000 ) ) ;
#207 = EDGE_LOOP ( 'NONE', ( #446, #298, #151, #355 ) ) ;
#208 = ORIENTED_EDGE ( 'NONE', *, *, #540, .T. ) ;
#209 = DIRECTION ( 'NONE',  ( -0.000000000000000000, -1.000000000000000000, -0.000000000000000000 ) ) ;
#210 = AXIS2_PLACEMENT_3D ( 'NONE', #348, #416, #819 ) ;
#211 = CARTESIAN_POINT ( 'NONE',  ( 190.0000000000000000, -8.000000000000000000, 6.938893903907227392E-16 ) ) ;
#212 = DIRECTION ( 'NONE',  ( -0.000000000000000000, -0.000000000000000000, -1.000000000000000000 ) ) ;
#213 = ORIENTED_EDGE ( 'NONE', *, *, #634, .F. ) ;
#214 = CARTESIAN_POINT ( 'NONE',  ( 223.0000000000000000, -8.000000000000001776, -6.100000000000016520 ) ) ;
#215 = EDGE_CURVE ( 'NONE', #282, #390, #385, .T. ) ;
#216 = CARTESIAN_POINT ( 'NONE',  ( 161.7499999999998010, 8.499999999999882760, 230.0000000000000000 ) ) ;
#217 = CARTESIAN_POINT ( 'NONE',  ( 230.0000000000000000, -8.000000000000001776, -17.00000000000000000 ) ) ;
#218 = EDGE_LOOP ( 'NONE', ( #472, #607, #621, #398 ) ) ;
#219 = DIRECTION ( 'NONE',  ( 1.049727191138617956E-16, -0.5150380749100550437, 0.8571673007021117785 ) ) ;
#220 = CC_DESIGN_DATE_AND_TIME_ASSIGNMENT ( #18, #561, ( #714 ) ) ;
#221 = DIRECTION ( 'NONE',  ( -0.000000000000000000, 1.020425574104004122E-16, 1.000000000000000000 ) ) ;
#222 = DIRECTION ( 'NONE',  ( -1.000000000000000000, 0.000000000000000000, -0.000000000000000000 ) ) ;
#223 = ORIENTED_EDGE ( 'NONE', *, *, #36, .F. ) ;
#224 = LINE ( 'NONE', #679, #848 ) ;
#225 = DIRECTION ( 'NONE',  ( -1.000000000000000000, 0.000000000000000000, 0.000000000000000000 ) ) ;
#226 = EDGE_CURVE ( 'NONE', #520, #330, #676, .T. ) ;
#227 = VERTEX_POINT ( 'NONE', #236 ) ;
#228 = CALENDAR_DATE ( 2025, 8, 12 ) ;
#229 = AXIS2_PLACEMENT_3D ( 'NONE', #132, #59, #696 ) ;
#230 = CC_DESIGN_PERSON_AND_ORGANIZATION_ASSIGNMENT ( #119, #775, ( #110 ) ) ;
#231 = ORIENTED_EDGE ( 'NONE', *, *, #56, .T. ) ;
#232 = CARTESIAN_POINT ( 'NONE',  ( 195.0000000000000000, -2.800000000000003819, -8.000000000000001776 ) ) ;
#233 = ORIENTED_EDGE ( 'NONE', *, *, #669, .F. ) ;
#234 = DIRECTION ( 'NONE',  ( 0.000000000000000000, 0.000000000000000000, 1.000000000000000000 ) ) ;
#235 = FACE_OUTER_BOUND ( 'NONE', #748, .T. ) ;
#236 = CARTESIAN_POINT ( 'NONE',  ( 223.0000000000000000, -8.000000000000001776, -9.899999999999986144 ) ) ;
#237 = ORIENTED_EDGE ( 'NONE', *, *, #94, .F. ) ;
#238 =( LENGTH_UNIT ( ) NAMED_UNIT ( * ) SI_UNIT ( .MILLI., .METRE. ) );
#239 = CARTESIAN_POINT ( 'NONE',  ( 230.0000000000000000, 0.000000000000000000, 3.000000000000000000 ) ) ;
#240 = ADVANCED_FACE ( 'NONE', ( #755 ), #315, .F. ) ;
#241 = CARTESIAN_POINT ( 'NONE',  ( 163.9999999999998010, 8.499999999999882760, 230.0000000000000000 ) ) ;
#242 = ORIENTED_EDGE ( 'NONE', *, *, #425, .F. ) ;
#243 = APPROVAL_ROLE ( '' ) ;
#244 = DIRECTION ( 'NONE',  ( 0.000000000000000000, 0.000000000000000000, -1.000000000000000000 ) ) ;
#245 = DIRECTION ( 'NONE',  ( 0.000000000000000000, 0.000000000000000000, 1.000000000000000000 ) ) ;
#246 = VERTEX_POINT ( 'NONE', #630 ) ;
#247 = CALENDAR_DATE ( 2025, 8, 12 ) ;
#248 = DIRECTION ( 'NONE',  ( -0.000000000000000000, -0.000000000000000000, -1.000000000000000000 ) ) ;
#249 = ADVANCED_FACE ( 'NONE', ( #829 ), #601, .F. ) ;
#250 = VECTOR ( 'NONE', #268, 1000.000000000000000 ) ;
#251 = EDGE_LOOP ( 'NONE', ( #693, #130 ) ) ;
#252 = COORDINATED_UNIVERSAL_TIME_OFFSET ( 8, 0, .AHEAD. ) ;
#253 = CIRCLE ( 'NONE', #553, 2.250000000000000444 ) ;
#254 = AXIS2_PLACEMENT_3D ( 'NONE', #668, #347, #74 ) ;
#255 = DIRECTION ( 'NONE',  ( -1.000000000000000000, 0.000000000000000000, 0.000000000000000000 ) ) ;
#256 = DIRECTION ( 'NONE',  ( -0.000000000000000000, -1.000000000000000000, -0.000000000000000000 ) ) ;
#257 = ADVANCED_FACE ( 'NONE', ( #285 ), #103, .T. ) ;
#258 = ORIENTED_EDGE ( 'NONE', *, *, #30, .T. ) ;
#259 = CARTESIAN_POINT ( 'NONE',  ( 230.0000000000000000, 18.00000000000000000, 3.000000000000000000 ) ) ;
#260 = LINE ( 'NONE', #694, #291 ) ;
#261 = LINE ( 'NONE', #131, #266 ) ;
#262 = DIRECTION ( 'NONE',  ( -0.000000000000000000, -0.000000000000000000, -1.000000000000000000 ) ) ;
#263 = CARTESIAN_POINT ( 'NONE',  ( 0.000000000000000000, 19.99999999999999645, -5.000000000000000000 ) ) ;
#264 = ORIENTED_EDGE ( 'NONE', *, *, #546, .T. ) ;
#265 = CARTESIAN_POINT ( 'NONE',  ( 0.000000000000000000, 19.99999999999999645, -5.000000000000000000 ) ) ;
#266 = VECTOR ( 'NONE', #514, 1000.000000000000000 ) ;
#267 = CARTESIAN_POINT ( 'NONE',  ( 163.9999999999998010, 8.499999999999882760, 230.0000000000000000 ) ) ;
#268 = DIRECTION ( 'NONE',  ( -1.000000000000000000, -0.000000000000000000, -0.000000000000000000 ) ) ;
#269 = VERTEX_POINT ( 'NONE', #500 ) ;
#270 = DIRECTION ( 'NONE',  ( 0.000000000000000000, 0.000000000000000000, -1.000000000000000000 ) ) ;
#271 = ORIENTED_EDGE ( 'NONE', *, *, #677, .F. ) ;
#272 = ORIENTED_EDGE ( 'NONE', *, *, #13, .F. ) ;
#273 = CARTESIAN_POINT ( 'NONE',  ( 190.0000000000000000, 2.000000000000000000, -1.734723475976806601E-16 ) ) ;
#274 = DIRECTION ( 'NONE',  ( 0.000000000000000000, 0.000000000000000000, 1.000000000000000000 ) ) ;
#275 = CARTESIAN_POINT ( 'NONE',  ( 230.0000000000000000, 0.000000000000000000, -17.00000000000000000 ) ) ;
#276 = CARTESIAN_POINT ( 'NONE',  ( 12.24999999999989875, 8.500000000000174083, 3.000000000000002665 ) ) ;
#277 = AXIS2_PLACEMENT_3D ( 'NONE', #454, #850, #463 ) ;
#278 = CARTESIAN_POINT ( 'NONE',  ( 0.000000000000000000, 0.000000000000000000, 3.000000000000000000 ) ) ;
#279 = LOCAL_TIME ( 19, 25, 28.00000000000000000, #826 ) ;
#280 = DIRECTION ( 'NONE',  ( 0.000000000000000000, 0.000000000000000000, -1.000000000000000000 ) ) ;
#281 = EDGE_CURVE ( 'NONE', #269, #155, #397, .T. ) ;
#282 = VERTEX_POINT ( 'NONE', #736 ) ;
#283 = CARTESIAN_POINT ( 'NONE',  ( 223.0000000000000000, -2.800000000000003819, -6.100000000000016520 ) ) ;
#284 = CARTESIAN_POINT ( 'NONE',  ( 161.7499999999998010, 8.499999999999882760, 0.000000000000000000 ) ) ;
#285 = FACE_OUTER_BOUND ( 'NONE', #218, .T. ) ;
#286 = VERTEX_POINT ( 'NONE', #16 ) ;
#287 = FACE_OUTER_BOUND ( 'NONE', #304, .T. ) ;
#288 = ADVANCED_FACE ( 'NONE', ( #365, #759, #433, #384 ), #576, .F. ) ;
#289 = LINE ( 'NONE', #626, #331 ) ;
#290 = VERTEX_POINT ( 'NONE', #50 ) ;
#291 = VECTOR ( 'NONE', #154, 1000.000000000000000 ) ;
#292 = EDGE_CURVE ( 'NONE', #394, #458, #521, .T. ) ;
#293 = VECTOR ( 'NONE', #62, 1000.000000000000000 ) ;
#294 = ORIENTED_EDGE ( 'NONE', *, *, #613, .F. ) ;
#295 = DIRECTION ( 'NONE',  ( 0.000000000000000000, -1.000000000000000000, 0.000000000000000000 ) ) ;
#296 = DIRECTION ( 'NONE',  ( 0.000000000000000000, 0.000000000000000000, -1.000000000000000000 ) ) ;
#297 = AXIS2_PLACEMENT_3D ( 'NONE', #702, #256, #511 ) ;
#298 = ORIENTED_EDGE ( 'NONE', *, *, #3, .T. ) ;
#299 = EDGE_CURVE ( 'NONE', #423, #830, #840, .T. ) ;
#300 = ORIENTED_EDGE ( 'NONE', *, *, #527, .F. ) ;
#301 = LINE ( 'NONE', #307, #835 ) ;
#302 = LOCAL_TIME ( 19, 25, 28.00000000000000000, #252 ) ;
#303 = CIRCLE ( 'NONE', #506, 2.250000000000001776 ) ;
#304 = EDGE_LOOP ( 'NONE', ( #533, #798, #746, #104 ) ) ;
#305 = EDGE_CURVE ( 'NONE', #286, #750, #192, .T. ) ;
#306 = DIRECTION ( 'NONE',  ( 1.000000000000000000, 0.000000000000000000, 0.000000000000000000 ) ) ;
#307 = CARTESIAN_POINT ( 'NONE',  ( 0.000000000000000000, 0.000000000000000000, 3.000000000000000000 ) ) ;
#308 = EDGE_LOOP ( 'NONE', ( #707, #203 ) ) ;
#309 = ADVANCED_FACE ( 'NONE', ( #123 ), #854, .F. ) ;
#310 = CARTESIAN_POINT ( 'NONE',  ( 195.0000000000000000, -2.800000000000003819, -6.100000000000016520 ) ) ;
#311 = AXIS2_PLACEMENT_3D ( 'NONE', #267, #248, #504 ) ;
#312 = EDGE_LOOP ( 'NONE', ( #223, #5, #501 ) ) ;
#313 = DIRECTION ( 'NONE',  ( -0.000000000000000000, -0.000000000000000000, -1.000000000000000000 ) ) ;
#314 = APPROVAL ( #436, 'æœª' ) ;
#315 = CONICAL_SURFACE ( 'NONE', #795, 1.899999999999985034, 1.029744258676653423 ) ;
#316 = ORIENTED_EDGE ( 'NONE', *, *, #292, .F. ) ;
#317 = DATE_AND_TIME ( #368, #563 ) ;
#318 = AXIS2_PLACEMENT_3D ( 'NONE', #232, #757, #427 ) ;
#319 = AXIS2_PLACEMENT_3D ( 'NONE', #136, #605, #395 ) ;
#320 = DIRECTION ( 'NONE',  ( 0.000000000000000000, 0.000000000000000000, -1.000000000000000000 ) ) ;
#321 = CARTESIAN_POINT ( 'NONE',  ( 0.000000000000000000, 0.000000000000000000, 0.000000000000000000 ) ) ;
#322 = DIRECTION ( 'NONE',  ( 0.000000000000000000, 0.000000000000000000, -1.000000000000000000 ) ) ;
#323 = APPROVAL_DATE_TIME ( #383, #108 ) ;
#324 = CARTESIAN_POINT ( 'NONE',  ( 195.0000000000000000, -8.000000000000001776, -8.000000000000001776 ) ) ;
#325 = CYLINDRICAL_SURFACE ( 'NONE', #419, 2.250000000000000444 ) ;
#326 = CARTESIAN_POINT ( 'NONE',  ( 195.0000000000000000, -2.800000000000003819, -9.899999999999986144 ) ) ;
#327 = EDGE_CURVE ( 'NONE', #452, #728, #593, .T. ) ;
#328 = DIRECTION ( 'NONE',  ( 0.000000000000000000, 0.000000000000000000, -1.000000000000000000 ) ) ;
#329 = CARTESIAN_POINT ( 'NONE',  ( 190.0000000000000000, 0.000000000000000000, -17.00000000000000000 ) ) ;
#330 = VERTEX_POINT ( 'NONE', #310 ) ;
#331 = VECTOR ( 'NONE', #670, 1000.000000000000000 ) ;
#332 = ORIENTED_EDGE ( 'NONE', *, *, #128, .T. ) ;
#333 = AXIS2_PLACEMENT_3D ( 'NONE', #836, #704, #639 ) ;
#334 = FACE_OUTER_BOUND ( 'NONE', #201, .T. ) ;
#335 = LINE ( 'NONE', #856, #603 ) ;
#336 = CARTESIAN_POINT ( 'NONE',  ( 223.0000000000000000, -8.000000000000000000, -8.000000000000001776 ) ) ;
#337 = ADVANCED_FACE ( 'NONE', ( #391 ), #325, .F. ) ;
#338 = ORIENTED_EDGE ( 'NONE', *, *, #540, .F. ) ;
#339 = ORIENTED_EDGE ( 'NONE', *, *, #764, .F. ) ;
#340 = DIRECTION ( 'NONE',  ( 0.000000000000000000, 0.000000000000000000, -1.000000000000000000 ) ) ;
#341 = CARTESIAN_POINT ( 'NONE',  ( 0.000000000000000000, 19.99999999999999645, -5.000000000000000000 ) ) ;
#342 = VECTOR ( 'NONE', #206, 1000.000000000000000 ) ;
#343 = EDGE_CURVE ( 'NONE', #623, #814, #117, .T. ) ;
#344 = CARTESIAN_POINT ( 'NONE',  ( 142.7499999999999147, 8.499999999999911182, 0.000000000000000000 ) ) ;
#345 = ORIENTED_EDGE ( 'NONE', *, *, #682, .F. ) ;
#346 = DIRECTION ( 'NONE',  ( 0.000000000000000000, 0.000000000000000000, -1.000000000000000000 ) ) ;
#347 = DIRECTION ( 'NONE',  ( -0.000000000000000000, -0.000000000000000000, -1.000000000000000000 ) ) ;
#348 = CARTESIAN_POINT ( 'NONE',  ( 9.999999999999896971, 8.500000000000174083, 230.0000000000000000 ) ) ;
#349 = ORIENTED_EDGE ( 'NONE', *, *, #134, .F. ) ;
#350 = APPLICATION_PROTOCOL_DEFINITION ( 'international standard', 'config_control_design', 1994, #720 ) ;
#351 = PLANE ( 'NONE',  #410 ) ;
#352 = CARTESIAN_POINT ( 'NONE',  ( 195.0000000000000000, -2.800000000000003819, -8.000000000000001776 ) ) ;
#353 = ORIENTED_EDGE ( 'NONE', *, *, #591, .F. ) ;
#354 = PERSON_AND_ORGANIZATION ( #91, #96 ) ;
#355 = ORIENTED_EDGE ( 'NONE', *, *, #465, .F. ) ;
#356 = DIRECTION ( 'NONE',  ( 0.000000000000000000, 0.000000000000000000, -1.000000000000000000 ) ) ;
#357 = AXIS2_PLACEMENT_3D ( 'NONE', #241, #7, #801 ) ;
#358 = AXIS2_PLACEMENT_3D ( 'NONE', #612, #618, #296 ) ;
#359 = CIRCLE ( 'NONE', #469, 2.250000000000000444 ) ;
#360 = ORIENTED_EDGE ( 'NONE', *, *, #299, .T. ) ;
#361 = EDGE_CURVE ( 'NONE', #181, #139, #706, .T. ) ;
#362 = ORIENTED_EDGE ( 'NONE', *, *, #100, .F. ) ;
#363 = DATE_AND_TIME ( #228, #183 ) ;
#364 = CYLINDRICAL_SURFACE ( 'NONE', #588, 1.899999999999985034 ) ;
#365 = FACE_BOUND ( 'NONE', #251, .T. ) ;
#366 = CC_DESIGN_PERSON_AND_ORGANIZATION_ASSIGNMENT ( #611, #487, ( #714 ) ) ;
#367 = ORIENTED_EDGE ( 'NONE', *, *, #375, .F. ) ;
#368 = CALENDAR_DATE ( 2025, 8, 12 ) ;
#369 = AXIS2_PLACEMENT_3D ( 'NONE', #541, #202, #804 ) ;
#370 = FACE_BOUND ( 'NONE', #308, .T. ) ;
#371 = CYLINDRICAL_SURFACE ( 'NONE', #210, 2.250000000000000444 ) ;
#372 = VECTOR ( 'NONE', #732, 1000.000000000000000 ) ;
#373 = AXIS2_PLACEMENT_3D ( 'NONE', #73, #340, #534 ) ;
#374 = EDGE_LOOP ( 'NONE', ( #338, #417 ) ) ;
#375 = EDGE_CURVE ( 'NONE', #681, #623, #650, .T. ) ;
#376 = CARTESIAN_POINT ( 'NONE',  ( 9.999999999999896971, 8.500000000000174083, 230.0000000000000000 ) ) ;
#377 = VECTOR ( 'NONE', #766, 1000.000000000000000 ) ;
#378 = ORIENTED_EDGE ( 'NONE', *, *, #669, .T. ) ;
#379 = PERSON_AND_ORGANIZATION_ROLE ( 'creator' ) ;
#380 = CC_DESIGN_PERSON_AND_ORGANIZATION_ASSIGNMENT ( #90, #751, ( #851 ) ) ;
#381 = CARTESIAN_POINT ( 'NONE',  ( 223.0000000000000000, -2.800000000000003819, -9.899999999999986144 ) ) ;
#382 = EDGE_LOOP ( 'NONE', ( #45, #790, #442 ) ) ;
#383 = DATE_AND_TIME ( #247, #302 ) ;
#384 = FACE_OUTER_BOUND ( 'NONE', #490, .T. ) ;
#385 = CIRCLE ( 'NONE', #169, 1.899999999999985034 ) ;
#386 = VERTEX_POINT ( 'NONE', #448 ) ;
#387 = COORDINATED_UNIVERSAL_TIME_OFFSET ( 8, 0, .AHEAD. ) ;
#388 = CARTESIAN_POINT ( 'NONE',  ( 230.0000000000000000, 0.000000000000000000, 3.000000000000000000 ) ) ;
#389 = LINE ( 'NONE', #651, #794 ) ;
#390 = VERTEX_POINT ( 'NONE', #381 ) ;
#391 = FACE_OUTER_BOUND ( 'NONE', #839, .T. ) ;
#392 = CC_DESIGN_PERSON_AND_ORGANIZATION_ASSIGNMENT ( #182, #649, ( #617 ) ) ;
#393 = ORIENTED_EDGE ( 'NONE', *, *, #441, .T. ) ;
#394 = VERTEX_POINT ( 'NONE', #709 ) ;
#395 = DIRECTION ( 'NONE',  ( -1.000000000000000000, 0.000000000000000000, 0.000000000000000000 ) ) ;
#396 = CARTESIAN_POINT ( 'NONE',  ( 190.0000000000000000, 0.000000000000000000, 3.000000000000000000 ) ) ;
#397 = CIRCLE ( 'NONE', #616, 2.250000000000001776 ) ;
#398 = ORIENTED_EDGE ( 'NONE', *, *, #677, .T. ) ;
#399 = DIRECTION ( 'NONE',  ( -0.000000000000000000, -1.000000000000000000, -0.000000000000000000 ) ) ;
#400 = AXIS2_PLACEMENT_3D ( 'NONE', #456, #209, #525 ) ;
#401 = DIRECTION ( 'NONE',  ( -0.000000000000000000, -0.000000000000000000, -1.000000000000000000 ) ) ;
#402 = APPLICATION_CONTEXT ( 'configuration controlled 3d designs of mechanical parts and assemblies' ) ;
#403 = CARTESIAN_POINT ( 'NONE',  ( 9.999999999999896971, 8.500000000000174083, 3.000000000000002665 ) ) ;
#404 = ORIENTED_EDGE ( 'NONE', *, *, #122, .F. ) ;
#405 = FACE_OUTER_BOUND ( 'NONE', #642, .T. ) ;
#406 = DIRECTION ( 'NONE',  ( 0.000000000000000000, -0.000000000000000000, -1.000000000000000000 ) ) ;
#407 = ORIENTED_EDGE ( 'NONE', *, *, #56, .F. ) ;
#408 = ORIENTED_EDGE ( 'NONE', *, *, #63, .F. ) ;
#409 = CARTESIAN_POINT ( 'NONE',  ( 230.0000000000000000, 19.99999999999999645, -5.000000000000000000 ) ) ;
#410 = AXIS2_PLACEMENT_3D ( 'NONE', #787, #306, #749 ) ;
#411 = PLANE ( 'NONE',  #724 ) ;
#412 = ORIENTED_EDGE ( 'NONE', *, *, #177, .F. ) ;
#413 = LINE ( 'NONE', #205, #619 ) ;
#414 = CARTESIAN_POINT ( 'NONE',  ( 163.9999999999998010, 8.499999999999882760, 0.000000000000000000 ) ) ;
#415 = CIRCLE ( 'NONE', #373, 2.250000000000001776 ) ;
#416 = DIRECTION ( 'NONE',  ( -0.000000000000000000, -0.000000000000000000, -1.000000000000000000 ) ) ;
#417 = ORIENTED_EDGE ( 'NONE', *, *, #515, .F. ) ;
#418 = DIRECTION ( 'NONE',  ( -0.000000000000000000, -1.000000000000000000, -0.000000000000000000 ) ) ;
#419 = AXIS2_PLACEMENT_3D ( 'NONE', #376, #313, #443 ) ;
#420 = PLANE ( 'NONE',  #333 ) ;
#421 = VERTEX_POINT ( 'NONE', #127 ) ;
#422 = CARTESIAN_POINT ( 'NONE',  ( 190.0000000000000000, -8.000000000000001776, -17.00000000000000000 ) ) ;
#423 = VERTEX_POINT ( 'NONE', #584 ) ;
#424 = DIRECTION ( 'NONE',  ( 0.000000000000000000, -0.000000000000000000, -1.000000000000000000 ) ) ;
#425 = EDGE_CURVE ( 'NONE', #246, #760, #837, .T. ) ;
#426 = ORIENTED_EDGE ( 'NONE', *, *, #705, .F. ) ;
#427 = DIRECTION ( 'NONE',  ( 0.000000000000000000, 0.000000000000000000, -1.000000000000000000 ) ) ;
#428 = DIRECTION ( 'NONE',  ( -0.000000000000000000, -1.000000000000000000, -0.000000000000000000 ) ) ;
#429 = EDGE_CURVE ( 'NONE', #475, #750, #508, .T. ) ;
#430 = CARTESIAN_POINT ( 'NONE',  ( 230.0000000000000000, 19.99999999999999645, 3.000000000000000000 ) ) ;
#431 = ORIENTED_EDGE ( 'NONE', *, *, #138, .F. ) ;
#432 = FACE_OUTER_BOUND ( 'NONE', #382, .T. ) ;
#433 = FACE_BOUND ( 'NONE', #756, .T. ) ;
#434 = ADVANCED_FACE ( 'NONE', ( #445, #580, #847 ), #779, .T. ) ;
#435 = VERTEX_POINT ( 'NONE', #782 ) ;
#436 = APPROVAL_STATUS ( 'not_yet_approved' ) ;
#437 = DIRECTION ( 'NONE',  ( -1.000000000000000000, 0.000000000000000000, 0.000000000000000000 ) ) ;
#438 = FACE_OUTER_BOUND ( 'NONE', #174, .T. ) ;
#439 = APPROVAL_PERSON_ORGANIZATION ( #188, #108, #243 ) ;
#440 = AXIS2_PLACEMENT_3D ( 'NONE', #185, #121, #437 ) ;
#441 = EDGE_CURVE ( 'NONE', #564, #760, #453, .T. ) ;
#442 = ORIENTED_EDGE ( 'NONE', *, *, #591, .T. ) ;
#443 = DIRECTION ( 'NONE',  ( -1.000000000000000000, 0.000000000000000000, 0.000000000000000000 ) ) ;
#444 = ORIENTED_EDGE ( 'NONE', *, *, #375, .T. ) ;
#445 = FACE_OUTER_BOUND ( 'NONE', #781, .T. ) ;
#446 = ORIENTED_EDGE ( 'NONE', *, *, #327, .F. ) ;
#447 = ADVANCED_FACE ( 'NONE', ( #438 ), #653, .F. ) ;
#448 = CARTESIAN_POINT ( 'NONE',  ( 195.0000000000000000, -8.000000000000001776, -6.100000000000016520 ) ) ;
#449 = CLOSED_SHELL ( 'NONE', ( #478, #309, #640, #240, #249, #191, #164, #577, #646, #620, #288, #485, #808, #493, #153, #434, #257, #337, #489, #447, #789, #822, #778, #833, #754, #554 ) ) ;
#450 = DIRECTION ( 'NONE',  ( -1.000000000000000000, 0.000000000000000000, 0.000000000000000000 ) ) ;
#451 = CC_DESIGN_APPROVAL ( #108, ( #110 ) ) ;
#452 = VERTEX_POINT ( 'NONE', #731 ) ;
#453 = LINE ( 'NONE', #712, #654 ) ;
#454 = CARTESIAN_POINT ( 'NONE',  ( 223.0000000000000000, -2.800000000000003819, -8.000000000000001776 ) ) ;
#455 = ORIENTED_EDGE ( 'NONE', *, *, #652, .F. ) ;
#456 = CARTESIAN_POINT ( 'NONE',  ( 223.0000000000000000, -8.000000000000000000, -8.000000000000001776 ) ) ;
#457 = FACE_OUTER_BOUND ( 'NONE', #92, .T. ) ;
#458 = VERTEX_POINT ( 'NONE', #723 ) ;
#459 = EDGE_CURVE ( 'NONE', #716, #139, #78, .T. ) ;
#460 = ORIENTED_EDGE ( 'NONE', *, *, #583, .T. ) ;
#461 = DIRECTION ( 'NONE',  ( -0.000000000000000000, -1.000000000000000000, -0.000000000000000000 ) ) ;
#462 = LINE ( 'NONE', #536, #718 ) ;
#463 = DIRECTION ( 'NONE',  ( 0.000000000000000000, 0.000000000000000000, -1.000000000000000000 ) ) ;
#464 = AXIS2_PLACEMENT_3D ( 'NONE', #594, #146, #844 ) ;
#465 = EDGE_CURVE ( 'NONE', #728, #155, #462, .T. ) ;
#466 = EDGE_LOOP ( 'NONE', ( #194, #190 ) ) ;
#467 = LINE ( 'NONE', #791, #293 ) ;
#468 = CIRCLE ( 'NONE', #197, 2.250000000000001776 ) ;
#469 = AXIS2_PLACEMENT_3D ( 'NONE', #6, #157, #14 ) ;
#470 = DIRECTION ( 'NONE',  ( -0.000000000000000000, -0.000000000000000000, -1.000000000000000000 ) ) ;
#471 = CARTESIAN_POINT ( 'NONE',  ( 0.000000000000000000, 0.000000000000000000, 3.000000000000000000 ) ) ;
#472 = ORIENTED_EDGE ( 'NONE', *, *, #846, .F. ) ;
#473 = LINE ( 'NONE', #735, #342 ) ;
#474 = DIRECTION ( 'NONE',  ( 0.000000000000000000, 0.000000000000000000, -1.000000000000000000 ) ) ;
#475 = VERTEX_POINT ( 'NONE', #409 ) ;
#476 = CARTESIAN_POINT ( 'NONE',  ( 0.000000000000000000, 19.99999999999999645, 0.000000000000000000 ) ) ;
#477 = LINE ( 'NONE', #2, #792 ) ;
#478 = ADVANCED_FACE ( 'NONE', ( #287 ), #717, .F. ) ;
#479 = CARTESIAN_POINT ( 'NONE',  ( 144.9999999999999147, 8.499999999999911182, 0.000000000000000000 ) ) ;
#480 = EDGE_LOOP ( 'NONE', ( #530, #300, #294, #543, #332, #187 ) ) ;
#481 = COORDINATED_UNIVERSAL_TIME_OFFSET ( 8, 0, .AHEAD. ) ;
#482 = CONICAL_SURFACE ( 'NONE', #80, 1.899999999999985034, 1.029744258676653423 ) ;
#483 = LINE ( 'NONE', #683, #37 ) ;
#484 = AXIS2_PLACEMENT_3D ( 'NONE', #476, #295, #424 ) ;
#485 = ADVANCED_FACE ( 'NONE', ( #608 ), #793, .F. ) ;
#486 = ORIENTED_EDGE ( 'NONE', *, *, #499, .T. ) ;
#487 = PERSON_AND_ORGANIZATION_ROLE ( 'creator' ) ;
#488 = DIRECTION ( 'NONE',  ( -1.000000000000000000, 0.000000000000000000, 0.000000000000000000 ) ) ;
#489 = ADVANCED_FACE ( 'NONE', ( #457 ), #592, .F. ) ;
#490 = EDGE_LOOP ( 'NONE', ( #431, #817, #200, #524, #491, #114 ) ) ;
#491 = ORIENTED_EDGE ( 'NONE', *, *, #441, .F. ) ;
#492 = MECHANICAL_CONTEXT ( 'NONE', #720, 'mechanical' ) ;
#493 = ADVANCED_FACE ( 'NONE', ( #334 ), #675, .T. ) ;
#494 = CARTESIAN_POINT ( 'NONE',  ( 190.0000000000000000, 0.000000000000000000, 2.407412430484044816E-32 ) ) ;
#495 = CIRCLE ( 'NONE', #277, 1.899999999999985034 ) ;
#496 = DIRECTION ( 'NONE',  ( 1.049727191138617956E-16, -0.5150380749100550437, 0.8571673007021117785 ) ) ;
#497 = ORIENTED_EDGE ( 'NONE', *, *, #13, .T. ) ;
#498 = CARTESIAN_POINT ( 'NONE',  ( 7.749999999999897859, 8.500000000000174083, 0.000000000000000000 ) ) ;
#499 = EDGE_CURVE ( 'NONE', #568, #503, #600, .T. ) ;
#500 = CARTESIAN_POINT ( 'NONE',  ( 147.2499999999999147, 8.499999999999911182, 0.000000000000000000 ) ) ;
#501 = ORIENTED_EDGE ( 'NONE', *, *, #816, .T. ) ;
#502 = FACE_OUTER_BOUND ( 'NONE', #207, .T. ) ;
#503 = VERTEX_POINT ( 'NONE', #284 ) ;
#504 = DIRECTION ( 'NONE',  ( -1.000000000000000000, 0.000000000000000000, 0.000000000000000000 ) ) ;
#505 = VECTOR ( 'NONE', #496, 1000.000000000000000 ) ;
#506 = AXIS2_PLACEMENT_3D ( 'NONE', #827, #244, #635 ) ;
#507 = VERTEX_POINT ( 'NONE', #547 ) ;
#508 = LINE ( 'NONE', #843, #544 ) ;
#509 = EDGE_LOOP ( 'NONE', ( #408, #710 ) ) ;
#510 = CARTESIAN_POINT ( 'NONE',  ( 230.0000000000000000, 0.000000000000000000, -17.00000000000000000 ) ) ;
#511 = DIRECTION ( 'NONE',  ( 0.000000000000000000, 0.000000000000000000, -1.000000000000000000 ) ) ;
#512 = AXIS2_PLACEMENT_3D ( 'NONE', #336, #665, #142 ) ;
#513 = DIRECTION ( 'NONE',  ( -0.000000000000000000, -0.000000000000000000, -1.000000000000000000 ) ) ;
#514 = DIRECTION ( 'NONE',  ( 0.000000000000000000, 1.000000000000000000, 0.000000000000000000 ) ) ;
#515 = EDGE_CURVE ( 'NONE', #435, #830, #359, .T. ) ;
#516 = DIRECTION ( 'NONE',  ( 0.000000000000000000, -0.000000000000000000, -1.000000000000000000 ) ) ;
#517 = VECTOR ( 'NONE', #137, 1000.000000000000000 ) ;
#518 = LINE ( 'NONE', #396, #126 ) ;
#519 = CIRCLE ( 'NONE', #358, 1.899999999999985034 ) ;
#520 = VERTEX_POINT ( 'NONE', #596 ) ;
#521 = LINE ( 'NONE', #772, #377 ) ;
#522 = VECTOR ( 'NONE', #55, 1000.000000000000000 ) ;
#523 = ORIENTED_EDGE ( 'NONE', *, *, #652, .T. ) ;
#524 = ORIENTED_EDGE ( 'NONE', *, *, #425, .T. ) ;
#525 = DIRECTION ( 'NONE',  ( 0.000000000000000000, 0.000000000000000000, -1.000000000000000000 ) ) ;
#526 = FACE_OUTER_BOUND ( 'NONE', #480, .T. ) ;
#527 = EDGE_CURVE ( 'NONE', #564, #290, #855, .T. ) ;
#528 = ORIENTED_EDGE ( 'NONE', *, *, #343, .T. ) ;
#529 = AXIS2_PLACEMENT_3D ( 'NONE', #569, #198, #641 ) ;
#530 = ORIENTED_EDGE ( 'NONE', *, *, #30, .F. ) ;
#531 = PLANE ( 'NONE',  #369 ) ;
#532 = AXIS2_PLACEMENT_3D ( 'NONE', #769, #112, #571 ) ;
#533 = ORIENTED_EDGE ( 'NONE', *, *, #215, .F. ) ;
#534 = DIRECTION ( 'NONE',  ( -1.000000000000000000, 0.000000000000000000, 0.000000000000000000 ) ) ;
#535 = CONICAL_SURFACE ( 'NONE', #551, 1.899999999999985034, 1.029744258676653423 ) ;
#536 = CARTESIAN_POINT ( 'NONE',  ( 142.7499999999999147, 8.499999999999911182, 230.0000000000000000 ) ) ;
#537 = DIRECTION ( 'NONE',  ( 0.000000000000000000, 0.000000000000000000, -1.000000000000000000 ) ) ;
#538 = EDGE_LOOP ( 'NONE', ( #810, #231, #118, #147 ) ) ;
#539 = PLANE ( 'NONE',  #484 ) ;
#540 = EDGE_CURVE ( 'NONE', #830, #435, #687, .T. ) ;
#541 = CARTESIAN_POINT ( 'NONE',  ( 0.000000000000000000, 0.000000000000000000, -6.938893903907227392E-16 ) ) ;
#542 = CARTESIAN_POINT ( 'NONE',  ( 0.000000000000000000, 18.00000000000000000, -5.000000000000000000 ) ) ;
#543 = ORIENTED_EDGE ( 'NONE', *, *, #739, .T. ) ;
#544 = VECTOR ( 'NONE', #832, 1000.000000000000000 ) ;
#545 = CARTESIAN_POINT ( 'NONE',  ( 230.0000000000000000, -8.000000000000001776, -17.00000000000000000 ) ) ;
#546 = EDGE_CURVE ( 'NONE', #661, #814, #473, .T. ) ;
#547 = CARTESIAN_POINT ( 'NONE',  ( 0.000000000000000000, 19.99999999999999645, -5.000000000000000000 ) ) ;
#548 = VECTOR ( 'NONE', #587, 1000.000000000000000 ) ;
#549 = EDGE_LOOP ( 'NONE', ( #258, #444, #610, #582 ) ) ;
#550 = AXIS2_PLACEMENT_3D ( 'NONE', #762, #562, #606 ) ;
#551 = AXIS2_PLACEMENT_3D ( 'NONE', #93, #418, #356 ) ;
#552 = DIRECTION ( 'NONE',  ( -0.000000000000000000, -0.000000000000000000, 1.000000000000000000 ) ) ;
#553 = AXIS2_PLACEMENT_3D ( 'NONE', #49, #320, #771 ) ;
#554 = ADVANCED_FACE ( 'NONE', ( #152 ), #531, .T. ) ;
#555 = ORIENTED_EDGE ( 'NONE', *, *, #3, .F. ) ;
#556 = EDGE_CURVE ( 'NONE', #768, #435, #477, .T. ) ;
#557 = ORIENTED_EDGE ( 'NONE', *, *, #573, .T. ) ;
#558 = LINE ( 'NONE', #818, #727 ) ;
#559 = CARTESIAN_POINT ( 'NONE',  ( 190.0000000000000000, -8.000000000000000000, 3.000000000000000888 ) ) ;
#560 = ORIENTED_EDGE ( 'NONE', *, *, #656, .T. ) ;
#561 = DATE_TIME_ROLE ( 'creation_date' ) ;
#562 = DIRECTION ( 'NONE',  ( -0.000000000000000000, -0.000000000000000000, -1.000000000000000000 ) ) ;
#563 = LOCAL_TIME ( 19, 25, 28.00000000000000000, #387 ) ;
#564 = VERTEX_POINT ( 'NONE', #738 ) ;
#565 = SECURITY_CLASSIFICATION_LEVEL ( 'unclassified' ) ;
#566 = LINE ( 'NONE', #42, #660 ) ;
#567 = DIRECTION ( 'NONE',  ( -0.000000000000000000, -1.000000000000000000, -0.000000000000000000 ) ) ;
#568 = VERTEX_POINT ( 'NONE', #65 ) ;
#569 = CARTESIAN_POINT ( 'NONE',  ( 230.0000000000000000, -8.000000000000000000, 3.000000000000000888 ) ) ;
#570 = ORIENTED_EDGE ( 'NONE', *, *, #515, .T. ) ;
#571 = DIRECTION ( 'NONE',  ( -1.000000000000000000, 0.000000000000000000, -0.000000000000000000 ) ) ;
#572 = CIRCLE ( 'NONE', #20, 2.250000000000001776 ) ;
#573 = EDGE_CURVE ( 'NONE', #458, #503, #193, .T. ) ;
#574 = VECTOR ( 'NONE', #800, 1000.000000000000000 ) ;
#575 = ORIENTED_EDGE ( 'NONE', *, *, #846, .T. ) ;
#576 = PLANE ( 'NONE',  #532 ) ;
#577 = ADVANCED_FACE ( 'NONE', ( #526 ), #351, .F. ) ;
#578 = ORIENTED_EDGE ( 'NONE', *, *, #682, .T. ) ;
#579 = DIRECTION ( 'NONE',  ( -0.000000000000000000, -1.000000000000000000, -0.000000000000000000 ) ) ;
#580 = FACE_BOUND ( 'NONE', #89, .T. ) ;
#581 = DIRECTION ( 'NONE',  ( -0.000000000000000000, -1.000000000000000000, -0.000000000000000000 ) ) ;
#582 = ORIENTED_EDGE ( 'NONE', *, *, #138, .T. ) ;
#583 = EDGE_CURVE ( 'NONE', #770, #741, #807, .T. ) ;
#584 = CARTESIAN_POINT ( 'NONE',  ( 7.749999999999897859, 8.500000000000174083, 3.000000000000002665 ) ) ;
#585 = CIRCLE ( 'NONE', #107, 2.250000000000000444 ) ;
#586 = CC_DESIGN_SECURITY_CLASSIFICATION ( #617, ( #110 ) ) ;
#587 = DIRECTION ( 'NONE',  ( 0.000000000000000000, 0.000000000000000000, -1.000000000000000000 ) ) ;
#588 = AXIS2_PLACEMENT_3D ( 'NONE', #625, #33, #680 ) ;
#589 = ORIENTED_EDGE ( 'NONE', *, *, #25, .F. ) ;
#590 = LINE ( 'NONE', #673, #184 ) ;
#591 = EDGE_CURVE ( 'NONE', #770, #330, #519, .T. ) ;
#592 = CYLINDRICAL_SURFACE ( 'NONE', #254, 2.250000000000001776 ) ;
#593 = CIRCLE ( 'NONE', #229, 2.250000000000001776 ) ;
#594 = CARTESIAN_POINT ( 'NONE',  ( 195.0000000000000000, -8.000000000000001776, -8.000000000000001776 ) ) ;
#595 = LINE ( 'NONE', #283, #743 ) ;
#596 = CARTESIAN_POINT ( 'NONE',  ( 195.0000000000000000, -1.658364823847645386, -8.000000000000001776 ) ) ;
#597 = LINE ( 'NONE', #841, #250 ) ;
#598 = EDGE_LOOP ( 'NONE', ( #61, #825, #47 ) ) ;
#599 = CARTESIAN_POINT ( 'NONE',  ( 195.0000000000000000, -8.000000000000001776, -9.899999999999986144 ) ) ;
#600 = LINE ( 'NONE', #216, #145 ) ;
#601 = CYLINDRICAL_SURFACE ( 'NONE', #357, 2.250000000000001776 ) ;
#602 = EDGE_CURVE ( 'NONE', #246, #139, #24, .T. ) ;
#603 = VECTOR ( 'NONE', #581, 1000.000000000000000 ) ;
#604 = EDGE_LOOP ( 'NONE', ( #378, #41, #589, #678 ) ) ;
#605 = DIRECTION ( 'NONE',  ( 0.000000000000000000, 0.000000000000000000, -1.000000000000000000 ) ) ;
#606 = DIRECTION ( 'NONE',  ( -1.000000000000000000, 0.000000000000000000, 0.000000000000000000 ) ) ;
#607 = ORIENTED_EDGE ( 'NONE', *, *, #546, .F. ) ;
#608 = FACE_OUTER_BOUND ( 'NONE', #604, .T. ) ;
#609 = DIRECTION ( 'NONE',  ( -1.000000000000000000, 0.000000000000000000, 0.000000000000000000 ) ) ;
#610 = ORIENTED_EDGE ( 'NONE', *, *, #52, .T. ) ;
#611 = PERSON_AND_ORGANIZATION ( #91, #96 ) ;
#612 = CARTESIAN_POINT ( 'NONE',  ( 195.0000000000000000, -2.800000000000003819, -8.000000000000001776 ) ) ;
#613 = EDGE_CURVE ( 'NONE', #507, #564, #558, .T. ) ;
#614 = EDGE_LOOP ( 'NONE', ( #528, #575, #17, #165, #72 ) ) ;
#615 =( NAMED_UNIT ( * ) PLANE_ANGLE_UNIT ( ) SI_UNIT ( $, .RADIAN. ) );
#616 = AXIS2_PLACEMENT_3D ( 'NONE', #479, #39, #609 ) ;
#617 = SECURITY_CLASSIFICATION ( '', '', #565 ) ;
#618 = DIRECTION ( 'NONE',  ( -0.000000000000000000, -1.000000000000000000, -0.000000000000000000 ) ) ;
#619 = VECTOR ( 'NONE', #461, 1000.000000000000000 ) ;
#620 = ADVANCED_FACE ( 'NONE', ( #235 ), #38, .F. ) ;
#621 = ORIENTED_EDGE ( 'NONE', *, *, #828, .T. ) ;
#622 = CARTESIAN_POINT ( 'NONE',  ( 230.0000000000000000, -8.000000000000000000, 3.000000000000000888 ) ) ;
#623 = VERTEX_POINT ( 'NONE', #494 ) ;
#624 = APPROVAL_DATE_TIME ( #363, #758 ) ;
#625 = CARTESIAN_POINT ( 'NONE',  ( 195.0000000000000000, -8.000000000000000000, -8.000000000000001776 ) ) ;
#626 = CARTESIAN_POINT ( 'NONE',  ( 0.000000000000000000, 18.00000000000000000, 3.000000000000000000 ) ) ;
#627 = EDGE_CURVE ( 'NONE', #728, #452, #468, .T. ) ;
#628 = ORIENTED_EDGE ( 'NONE', *, *, #82, .F. ) ;
#629 = LOCAL_TIME ( 19, 25, 28.00000000000000000, #32 ) ;
#630 = CARTESIAN_POINT ( 'NONE',  ( 230.0000000000000000, -8.000000000000000000, 3.000000000000000888 ) ) ;
#631 = AXIS2_PLACEMENT_3D ( 'NONE', #140, #399, #328 ) ;
#632 = ORIENTED_EDGE ( 'NONE', *, *, #327, .T. ) ;
#633 = APPROVAL_DATE_TIME ( #317, #314 ) ;
#634 = EDGE_CURVE ( 'NONE', #421, #681, #483, .T. ) ;
#635 = DIRECTION ( 'NONE',  ( -1.000000000000000000, 0.000000000000000000, 0.000000000000000000 ) ) ;
#636 = CARTESIAN_POINT ( 'NONE',  ( 190.0000000000000000, 0.000000000000000000, 3.000000000000000000 ) ) ;
#637 = ORIENTED_EDGE ( 'NONE', *, *, #627, .F. ) ;
#638 = APPROVAL_ROLE ( '' ) ;
#639 = DIRECTION ( 'NONE',  ( -1.000000000000000000, 0.000000000000000000, -0.000000000000000000 ) ) ;
#640 = ADVANCED_FACE ( 'NONE', ( #690 ), #364, .F. ) ;
#641 = DIRECTION ( 'NONE',  ( 0.000000000000000000, -8.673617379884034239E-17, -1.000000000000000000 ) ) ;
#642 = EDGE_LOOP ( 'NONE', ( #339, #167, #35, #733 ) ) ;
#643 = PERSON_AND_ORGANIZATION ( #91, #96 ) ;
#644 = DIRECTION ( 'NONE',  ( -1.000000000000000000, -0.000000000000000000, -0.000000000000000000 ) ) ;
#645 = DIRECTION ( 'NONE',  ( 0.000000000000000000, 0.000000000000000000, -1.000000000000000000 ) ) ;
#646 = ADVANCED_FACE ( 'NONE', ( #370, #744, #162, #812 ), #420, .T. ) ;
#647 = APPROVAL_PERSON_ORGANIZATION ( #354, #758, #102 ) ;
#648 = ORIENTED_EDGE ( 'NONE', *, *, #705, .T. ) ;
#649 = PERSON_AND_ORGANIZATION_ROLE ( 'classification_officer' ) ;
#650 = LINE ( 'NONE', #321, #40 ) ;
#651 = CARTESIAN_POINT ( 'NONE',  ( 147.2499999999999147, 8.499999999999911182, 230.0000000000000000 ) ) ;
#652 = EDGE_CURVE ( 'NONE', #623, #53, #711, .T. ) ;
#653 = CYLINDRICAL_SURFACE ( 'NONE', #311, 2.250000000000001776 ) ;
#654 = VECTOR ( 'NONE', #46, 1000.000000000000000 ) ;
#655 = ORIENTED_EDGE ( 'NONE', *, *, #429, .F. ) ;
#656 = EDGE_CURVE ( 'NONE', #503, #458, #697, .T. ) ;
#657 = DIRECTION ( 'NONE',  ( -0.000000000000000000, -0.000000000000000000, -1.000000000000000000 ) ) ;
#658 = AXIS2_PLACEMENT_3D ( 'NONE', #217, #474, #222 ) ;
#659 = DIRECTION ( 'NONE',  ( -0.000000000000000000, -0.000000000000000000, 1.000000000000000000 ) ) ;
#660 = VECTOR ( 'NONE', #255, 1000.000000000000000 ) ;
#661 = VERTEX_POINT ( 'NONE', #510 ) ;
#662 = DIRECTION ( 'NONE',  ( -0.000000000000000000, -1.000000000000000000, -0.000000000000000000 ) ) ;
#663 = CARTESIAN_POINT ( 'NONE',  ( 223.0000000000000000, -8.000000000000001776, -8.000000000000001776 ) ) ;
#664 = ORIENTED_EDGE ( 'NONE', *, *, #88, .F. ) ;
#665 = DIRECTION ( 'NONE',  ( -0.000000000000000000, -1.000000000000000000, -0.000000000000000000 ) ) ;
#666 = CARTESIAN_POINT ( 'NONE',  ( 223.0000000000000000, -2.800000000000003819, -8.000000000000001776 ) ) ;
#667 = AXIS2_PLACEMENT_3D ( 'NONE', #414, #270, #86 ) ;
#668 = CARTESIAN_POINT ( 'NONE',  ( 144.9999999999999147, 8.499999999999911182, 230.0000000000000000 ) ) ;
#669 = EDGE_CURVE ( 'NONE', #750, #161, #708, .T. ) ;
#670 = DIRECTION ( 'NONE',  ( -0.000000000000000000, -0.000000000000000000, 1.000000000000000000 ) ) ;
#671 = CC_DESIGN_APPROVAL ( #758, ( #714 ) ) ;
#672 = ORIENTED_EDGE ( 'NONE', *, *, #730, .T. ) ;
#673 = CARTESIAN_POINT ( 'NONE',  ( 223.0000000000000000, -8.000000000000000000, -9.899999999999986144 ) ) ;
#674 = VECTOR ( 'NONE', #116, 1000.000000000000000 ) ;
#675 = PLANE ( 'NONE',  #51 ) ;
#676 = LINE ( 'NONE', #160, #505 ) ;
#677 = EDGE_CURVE ( 'NONE', #845, #716, #566, .T. ) ;
#678 = ORIENTED_EDGE ( 'NONE', *, *, #429, .T. ) ;
#679 = CARTESIAN_POINT ( 'NONE',  ( 230.0000000000000000, -8.000000000000001776, -17.00000000000000000 ) ) ;
#680 = DIRECTION ( 'NONE',  ( 0.000000000000000000, 0.000000000000000000, -1.000000000000000000 ) ) ;
#681 = VERTEX_POINT ( 'NONE', #701 ) ;
#682 = EDGE_CURVE ( 'NONE', #423, #768, #253, .T. ) ;
#683 = CARTESIAN_POINT ( 'NONE',  ( 0.000000000000000000, 0.000000000000000000, 0.000000000000000000 ) ) ;
#684 = ORIENTED_EDGE ( 'NONE', *, *, #627, .T. ) ;
#685 = DIRECTION ( 'NONE',  ( 0.000000000000000000, -1.000000000000000000, 0.000000000000000000 ) ) ;
#686 = VECTOR ( 'NONE', #212, 1000.000000000000000 ) ;
#687 = CIRCLE ( 'NONE', #319, 2.250000000000000444 ) ;
#688 = ORIENTED_EDGE ( 'NONE', *, *, #465, .T. ) ;
#689 = APPROVAL_STATUS ( 'not_yet_approved' ) ;
#690 = FACE_OUTER_BOUND ( 'NONE', #538, .T. ) ;
#691 = DIRECTION ( 'NONE',  ( -1.000000000000000000, -0.000000000000000000, -0.000000000000000000 ) ) ;
#692 = EDGE_CURVE ( 'NONE', #386, #741, #159, .T. ) ;
#693 = ORIENTED_EDGE ( 'NONE', *, *, #797, .T. ) ;
#694 = CARTESIAN_POINT ( 'NONE',  ( 230.0000000000000000, -8.000000000000000000, 3.000000000000000888 ) ) ;
#695 = ORIENTED_EDGE ( 'NONE', *, *, #134, .T. ) ;
#696 = DIRECTION ( 'NONE',  ( -1.000000000000000000, 0.000000000000000000, 0.000000000000000000 ) ) ;
#697 = CIRCLE ( 'NONE', #440, 2.250000000000001776 ) ;
#698 = ORIENTED_EDGE ( 'NONE', *, *, #88, .T. ) ;
#699 = APPROVAL_STATUS ( 'not_yet_approved' ) ;
#700 = VECTOR ( 'NONE', #645, 1000.000000000000000 ) ;
#701 = CARTESIAN_POINT ( 'NONE',  ( 0.000000000000000000, 0.000000000000000000, 0.000000000000000000 ) ) ;
#702 = CARTESIAN_POINT ( 'NONE',  ( 223.0000000000000000, -2.800000000000003819, -8.000000000000001776 ) ) ;
#703 = ORIENTED_EDGE ( 'NONE', *, *, #556, .F. ) ;
#704 = DIRECTION ( 'NONE',  ( 0.000000000000000000, 0.000000000000000000, -1.000000000000000000 ) ) ;
#705 = EDGE_CURVE ( 'NONE', #53, #286, #261, .T. ) ;
#706 = LINE ( 'NONE', #636, #26 ) ;
#707 = ORIENTED_EDGE ( 'NONE', *, *, #656, .F. ) ;
#708 = LINE ( 'NONE', #831, #66 ) ;
#709 = CARTESIAN_POINT ( 'NONE',  ( 166.2499999999998010, 8.499999999999882760, 3.000000000000002665 ) ) ;
#710 = ORIENTED_EDGE ( 'NONE', *, *, #692, .F. ) ;
#711 = LINE ( 'NONE', #54, #674 ) ;
#712 = CARTESIAN_POINT ( 'NONE',  ( 0.000000000000000000, 19.99999999999999645, 3.000000000000000000 ) ) ;
#713 = DESIGN_CONTEXT ( 'detailed design', #402, 'design' ) ;
#714 = PRODUCT_DEFINITION ( 'æœ', '', #110, #713 ) ;
#715 = DIRECTION ( 'NONE',  ( -0.000000000000000000, -1.000000000000000000, -0.000000000000000000 ) ) ;
#716 = VERTEX_POINT ( 'NONE', #777 ) ;
#717 = CYLINDRICAL_SURFACE ( 'NONE', #512, 1.899999999999985034 ) ;
#718 = VECTOR ( 'NONE', #470, 1000.000000000000000 ) ;
#719 = ORIENTED_EDGE ( 'NONE', *, *, #305, .F. ) ;
#720 = APPLICATION_CONTEXT ( 'configuration controlled 3d designs of mechanical parts and assemblies' ) ;
#721 = EDGE_LOOP ( 'NONE', ( #455, #367, #213, #664, #426 ) ) ;
#722 = CYLINDRICAL_SURFACE ( 'NONE', #631, 1.899999999999985034 ) ;
#723 = CARTESIAN_POINT ( 'NONE',  ( 166.2499999999998010, 8.499999999999882760, 0.000000000000000000 ) ) ;
#724 = AXIS2_PLACEMENT_3D ( 'NONE', #87, #106, #245 ) ;
#725 =( GEOMETRIC_REPRESENTATION_CONTEXT ( 3 ) GLOBAL_UNCERTAINTY_ASSIGNED_CONTEXT ( ( #199 ) ) GLOBAL_UNIT_ASSIGNED_CONTEXT ( ( #238, #615, #22 ) ) REPRESENTATION_CONTEXT ( 'NONE', 'WORKASPACE' ) );
#726 = CARTESIAN_POINT ( 'NONE',  ( 230.0000000000000000, 0.000000000000000000, 0.000000000000000000 ) ) ;
#727 = VECTOR ( 'NONE', #552, 1000.000000000000000 ) ;
#728 = VERTEX_POINT ( 'NONE', #195 ) ;
#729 = CARTESIAN_POINT ( 'NONE',  ( 195.0000000000000000, -2.800000000000003819, -9.899999999999986144 ) ) ;
#730 = EDGE_CURVE ( 'NONE', #155, #269, #303, .T. ) ;
#731 = CARTESIAN_POINT ( 'NONE',  ( 147.2499999999999147, 8.499999999999911182, 3.000000000000002665 ) ) ;
#732 = DIRECTION ( 'NONE',  ( -1.000000000000000000, -0.000000000000000000, -0.000000000000000000 ) ) ;
#733 = ORIENTED_EDGE ( 'NONE', *, *, #82, .T. ) ;
#734 = EDGE_CURVE ( 'NONE', #765, #390, #467, .T. ) ;
#735 = CARTESIAN_POINT ( 'NONE',  ( 230.0000000000000000, 0.000000000000000000, -17.00000000000000000 ) ) ;
#736 = CARTESIAN_POINT ( 'NONE',  ( 223.0000000000000000, -2.800000000000003819, -6.100000000000016520 ) ) ;
#737 = EDGE_LOOP ( 'NONE', ( #204, #124, #101 ) ) ;
#738 = CARTESIAN_POINT ( 'NONE',  ( 0.000000000000000000, 19.99999999999999645, 3.000000000000000000 ) ) ;
#739 = EDGE_CURVE ( 'NONE', #507, #161, #135, .T. ) ;
#740 = DIRECTION ( 'NONE',  ( 0.000000000000000000, 0.000000000000000000, -1.000000000000000000 ) ) ;
#741 = VERTEX_POINT ( 'NONE', #599 ) ;
#742 = CALENDAR_DATE ( 2025, 8, 12 ) ;
#743 = VECTOR ( 'NONE', #219, 1000.000000000000000 ) ;
#744 = FACE_BOUND ( 'NONE', #466, .T. ) ;
#745 = EDGE_CURVE ( 'NONE', #390, #227, #590, .T. ) ;
#746 = ORIENTED_EDGE ( 'NONE', *, *, #177, .T. ) ;
#747 = DIRECTION ( 'NONE',  ( -0.000000000000000000, -1.000000000000000000, -0.000000000000000000 ) ) ;
#748 = EDGE_LOOP ( 'NONE', ( #648, #11, #655, #349, #242, #404, #785, #362 ) ) ;
#749 = DIRECTION ( 'NONE',  ( 0.000000000000000000, 0.000000000000000000, -1.000000000000000000 ) ) ;
#750 = VERTEX_POINT ( 'NONE', #803 ) ;
#751 = PERSON_AND_ORGANIZATION_ROLE ( 'design_owner' ) ;
#752 = AXIS2_PLACEMENT_3D ( 'NONE', #663, #715, #133 ) ;
#753 = APPROVAL_PERSON_ORGANIZATION ( #643, #314, #638 ) ;
#754 = ADVANCED_FACE ( 'NONE', ( #405 ), #853, .F. ) ;
#755 = FACE_OUTER_BOUND ( 'NONE', #312, .T. ) ;
#756 = EDGE_LOOP ( 'NONE', ( #578, #497 ) ) ;
#757 = DIRECTION ( 'NONE',  ( -0.000000000000000000, -1.000000000000000000, -0.000000000000000000 ) ) ;
#758 = APPROVAL ( #689, 'æœª' ) ;
#759 = FACE_BOUND ( 'NONE', #802, .T. ) ;
#760 = VERTEX_POINT ( 'NONE', #786 ) ;
#761 = SHAPE_DEFINITION_REPRESENTATION ( #813, #15 ) ;
#762 = CARTESIAN_POINT ( 'NONE',  ( 144.9999999999999147, 8.499999999999911182, 230.0000000000000000 ) ) ;
#763 = MANIFOLD_SOLID_BREP ( '\X2\52079664\X0\-\X2\62c94f38\X0\3', #449 ) ;
#764 = EDGE_CURVE ( 'NONE', #282, #806, #413, .T. ) ;
#765 = VERTEX_POINT ( 'NONE', #68 ) ;
#766 = DIRECTION ( 'NONE',  ( -0.000000000000000000, -0.000000000000000000, -1.000000000000000000 ) ) ;
#767 = PRODUCT_RELATED_PRODUCT_CATEGORY ( 'detail', '', ( #851 ) ) ;
#768 = VERTEX_POINT ( 'NONE', #276 ) ;
#769 = CARTESIAN_POINT ( 'NONE',  ( 0.000000000000000000, 0.000000000000000000, 3.000000000000000000 ) ) ;
#770 = VERTEX_POINT ( 'NONE', #729 ) ;
#771 = DIRECTION ( 'NONE',  ( -1.000000000000000000, 0.000000000000000000, 0.000000000000000000 ) ) ;
#772 = CARTESIAN_POINT ( 'NONE',  ( 166.2499999999998010, 8.499999999999882760, 230.0000000000000000 ) ) ;
#773 = AXIS2_PLACEMENT_3D ( 'NONE', #341, #274, #9 ) ;
#774 = CARTESIAN_POINT ( 'NONE',  ( 163.9999999999998010, 8.499999999999882760, 3.000000000000002665 ) ) ;
#775 = PERSON_AND_ORGANIZATION_ROLE ( 'design_supplier' ) ;
#776 = ORIENTED_EDGE ( 'NONE', *, *, #292, .T. ) ;
#777 = CARTESIAN_POINT ( 'NONE',  ( 190.0000000000000000, -8.000000000000001776, -17.00000000000000000 ) ) ;
#778 = ADVANCED_FACE ( 'NONE', ( #156 ), #722, .F. ) ;
#779 = PLANE ( 'NONE',  #529 ) ;
#780 = EDGE_LOOP ( 'NONE', ( #407, #353, #460, #178 ) ) ;
#781 = EDGE_LOOP ( 'NONE', ( #27, #31, #271, #97 ) ) ;
#782 = CARTESIAN_POINT ( 'NONE',  ( 12.24999999999989875, 8.500000000000174083, 0.000000000000000000 ) ) ;
#783 = EDGE_CURVE ( 'NONE', #765, #282, #595, .T. ) ;
#784 = ORIENTED_EDGE ( 'NONE', *, *, #499, .F. ) ;
#785 = ORIENTED_EDGE ( 'NONE', *, *, #828, .F. ) ;
#786 = CARTESIAN_POINT ( 'NONE',  ( 230.0000000000000000, 19.99999999999999645, 3.000000000000000000 ) ) ;
#787 = CARTESIAN_POINT ( 'NONE',  ( 0.000000000000000000, 0.000000000000000000, 3.000000000000000000 ) ) ;
#788 = EDGE_LOOP ( 'NONE', ( #272, #21, #570, #76 ) ) ;
#789 = ADVANCED_FACE ( 'NONE', ( #1 ), #799, .F. ) ;
#790 = ORIENTED_EDGE ( 'NONE', *, *, #36, .T. ) ;
#791 = CARTESIAN_POINT ( 'NONE',  ( 223.0000000000000000, -2.800000000000003819, -9.899999999999986144 ) ) ;
#792 = VECTOR ( 'NONE', #657, 1000.000000000000000 ) ;
#793 = PLANE ( 'NONE',  #773 ) ;
#794 = VECTOR ( 'NONE', #513, 1000.000000000000000 ) ;
#795 = AXIS2_PLACEMENT_3D ( 'NONE', #352, #824, #537 ) ;
#796 = LINE ( 'NONE', #326, #517 ) ;
#797 = EDGE_CURVE ( 'NONE', #568, #394, #415, .T. ) ;
#798 = ORIENTED_EDGE ( 'NONE', *, *, #764, .T. ) ;
#799 = PLANE ( 'NONE',  #849 ) ;
#800 = DIRECTION ( 'NONE',  ( -0.000000000000000000, -1.000000000000000000, -0.000000000000000000 ) ) ;
#801 = DIRECTION ( 'NONE',  ( -1.000000000000000000, 0.000000000000000000, 0.000000000000000000 ) ) ;
#802 = EDGE_LOOP ( 'NONE', ( #684, #632 ) ) ;
#803 = CARTESIAN_POINT ( 'NONE',  ( 230.0000000000000000, 18.00000000000000000, -5.000000000000000000 ) ) ;
#804 = DIRECTION ( 'NONE',  ( 0.000000000000000000, -0.000000000000000000, -1.000000000000000000 ) ) ;
#805 = LINE ( 'NONE', #430, #809 ) ;
#806 = VERTEX_POINT ( 'NONE', #214 ) ;
#807 = LINE ( 'NONE', #29, #84 ) ;
#808 = ADVANCED_FACE ( 'NONE', ( #8 ), #539, .F. ) ;
#809 = VECTOR ( 'NONE', #740, 1000.000000000000000 ) ;
#810 = ORIENTED_EDGE ( 'NONE', *, *, #816, .F. ) ;
#811 = VECTOR ( 'NONE', #823, 1000.000000000000000 ) ;
#812 = FACE_OUTER_BOUND ( 'NONE', #721, .T. ) ;
#813 = PRODUCT_DEFINITION_SHAPE ( 'NONE', 'NONE',  #714 ) ;
#814 = VERTEX_POINT ( 'NONE', #821 ) ;
#815 = DIRECTION ( 'NONE',  ( 0.000000000000000000, 0.000000000000000000, -1.000000000000000000 ) ) ;
#816 = EDGE_CURVE ( 'NONE', #330, #770, #111, .T. ) ;
#817 = ORIENTED_EDGE ( 'NONE', *, *, #361, .T. ) ;
#818 = CARTESIAN_POINT ( 'NONE',  ( 0.000000000000000000, 19.99999999999999645, 3.000000000000000000 ) ) ;
#819 = DIRECTION ( 'NONE',  ( -1.000000000000000000, 0.000000000000000000, 0.000000000000000000 ) ) ;
#820 = EDGE_LOOP ( 'NONE', ( #58, #393, #695, #852 ) ) ;
#821 = CARTESIAN_POINT ( 'NONE',  ( 190.0000000000000000, 0.000000000000000000, -17.00000000000000000 ) ) ;
#822 = ADVANCED_FACE ( 'NONE', ( #432 ), #535, .F. ) ;
#823 = DIRECTION ( 'NONE',  ( -1.000000000000000000, 0.000000000000000000, 0.000000000000000000 ) ) ;
#824 = DIRECTION ( 'NONE',  ( -0.000000000000000000, -1.000000000000000000, -0.000000000000000000 ) ) ;
#825 = ORIENTED_EDGE ( 'NONE', *, *, #783, .T. ) ;
#826 = COORDINATED_UNIVERSAL_TIME_OFFSET ( 8, 0, .AHEAD. ) ;
#827 = CARTESIAN_POINT ( 'NONE',  ( 144.9999999999999147, 8.499999999999911182, 0.000000000000000000 ) ) ;
#828 = EDGE_CURVE ( 'NONE', #661, #845, #224, .T. ) ;
#829 = FACE_OUTER_BOUND ( 'NONE', #71, .T. ) ;
#830 = VERTEX_POINT ( 'NONE', #498 ) ;
#831 = CARTESIAN_POINT ( 'NONE',  ( 0.000000000000000000, 18.00000000000000000, -5.000000000000000000 ) ) ;
#832 = DIRECTION ( 'NONE',  ( -0.000000000000000000, -1.000000000000000000, -0.000000000000000000 ) ) ;
#833 = ADVANCED_FACE ( 'NONE', ( #98 ), #482, .F. ) ;
#834 = ORIENTED_EDGE ( 'NONE', *, *, #797, .F. ) ;
#835 = VECTOR ( 'NONE', #691, 1000.000000000000000 ) ;
#836 = CARTESIAN_POINT ( 'NONE',  ( 0.000000000000000000, 0.000000000000000000, 0.000000000000000000 ) ) ;
#837 = LINE ( 'NONE', #388, #522 ) ;
#838 = AXIS2_PLACEMENT_3D ( 'NONE', #239, #225, #19 ) ;
#839 = EDGE_LOOP ( 'NONE', ( #703, #345, #360, #208 ) ) ;
#840 = LINE ( 'NONE', #186, #113 ) ;
#841 = CARTESIAN_POINT ( 'NONE',  ( 0.000000000000000000, 18.00000000000000000, 0.000000000000000000 ) ) ;
#842 = DIRECTION ( 'NONE',  ( 0.000000000000000000, 0.000000000000000000, -1.000000000000000000 ) ) ;
#843 = CARTESIAN_POINT ( 'NONE',  ( 230.0000000000000000, 19.99999999999999645, -5.000000000000000000 ) ) ;
#844 = DIRECTION ( 'NONE',  ( 0.000000000000000000, 0.000000000000000000, -1.000000000000000000 ) ) ;
#845 = VERTEX_POINT ( 'NONE', #545 ) ;
#846 = EDGE_CURVE ( 'NONE', #814, #716, #168, .T. ) ;
#847 = FACE_BOUND ( 'NONE', #509, .T. ) ;
#848 = VECTOR ( 'NONE', #747, 1000.000000000000000 ) ;
#849 = AXIS2_PLACEMENT_3D ( 'NONE', #273, #148, #346 ) ;
#850 = DIRECTION ( 'NONE',  ( -0.000000000000000000, -1.000000000000000000, -0.000000000000000000 ) ) ;
#851 = PRODUCT ( '\X2\76d65b50\X0\2', '\X2\76d65b50\X0\2', '', ( #492 ) ) ;
#852 = ORIENTED_EDGE ( 'NONE', *, *, #25, .T. ) ;
#853 = CYLINDRICAL_SURFACE ( 'NONE', #400, 1.899999999999985034 ) ;
#854 = CONICAL_SURFACE ( 'NONE', #297, 1.899999999999985034, 1.029744258676653423 ) ;
#855 = LINE ( 'NONE', #278, #574 ) ;
#856 = CARTESIAN_POINT ( 'NONE',  ( 195.0000000000000000, -8.000000000000000000, -6.100000000000016520 ) ) ;
ENDSEC;
END-ISO-10303-21;
