ISO-10303-21;
HEADER;
FILE_DESCRIPTION (( 'STEP AP203' ),
    '1' );
FILE_NAME ('¸Ç×Ó.STEP',
    '2025-12-08T11:25:49',
    ( '' ),
    ( '' ),
    'SwSTEP 2.0',
    'SolidWorks 2025',
    '' );
FILE_SCHEMA (( 'CONFIG_CONTROL_DESIGN' ));
ENDSEC;

DATA;
#1 = DIRECTION ( 'NONE',  ( 0.000000000000000000, 0.000000000000000000, -1.000000000000000000 ) ) ;
#2 = EDGE_LOOP ( 'NONE', ( #621, #515, #391, #363 ) ) ;
#3 = VERTEX_POINT ( 'NONE', #321 ) ;
#4 = ADVANCED_FACE ( 'NONE', ( #566 ), #755, .F. ) ;
#5 = AXIS2_PLACEMENT_3D ( 'NONE', #758, #705, #259 ) ;
#6 = DIRECTION ( 'NONE',  ( -0.000000000000000000, -0.000000000000000000, -1.000000000000000000 ) ) ;
#7 = LINE ( 'NONE', #132, #489 ) ;
#8 = EDGE_LOOP ( 'NONE', ( #559, #613, #108, #632 ) ) ;
#9 = ORIENTED_EDGE ( 'NONE', *, *, #291, .F. ) ;
#10 = PERSON_AND_ORGANIZATION_ROLE ( 'creator' ) ;
#11 = LINE ( 'NONE', #734, #397 ) ;
#12 = EDGE_LOOP ( 'NONE', ( #448, #129, #249, #625, #457, #342 ) ) ;
#13 = DIRECTION ( 'NONE',  ( -0.000000000000000000, -0.000000000000000000, -1.000000000000000000 ) ) ;
#14 = EDGE_CURVE ( 'NONE', #678, #524, #11, .T. ) ;
#15 = DIRECTION ( 'NONE',  ( -0.000000000000000000, -1.000000000000000000, -0.000000000000000000 ) ) ;
#16 = DATE_TIME_ROLE ( 'creation_date' ) ;
#17 = CARTESIAN_POINT ( 'NONE',  ( 0.000000000000000000, 0.000000000000000000, 3.000000000000000000 ) ) ;
#18 = LINE ( 'NONE', #514, #633 ) ;
#19 = AXIS2_PLACEMENT_3D ( 'NONE', #523, #279, #162 ) ;
#20 = ORIENTED_EDGE ( 'NONE', *, *, #790, .T. ) ;
#21 = PERSON_AND_ORGANIZATION_ROLE ( 'classification_officer' ) ;
#22 = DIRECTION ( 'NONE',  ( 0.000000000000000000, -0.000000000000000000, 1.000000000000000000 ) ) ;
#23 = VECTOR ( 'NONE', #516, 1000.000000000000000 ) ;
#24 = CARTESIAN_POINT ( 'NONE',  ( 222.9999999999997442, 8.499999999999980460, 3.000000000000002665 ) ) ;
#25 = EDGE_LOOP ( 'NONE', ( #502, #179, #387, #612 ) ) ;
#26 = CALENDAR_DATE ( 2025, 8, 12 ) ;
#27 = DIRECTION ( 'NONE',  ( -1.000000000000000000, 0.000000000000000000, 0.000000000000000000 ) ) ;
#28 = EDGE_LOOP ( 'NONE', ( #301, #375, #786, #760 ) ) ;
#29 = CC_DESIGN_PERSON_AND_ORGANIZATION_ASSIGNMENT ( #639, #81, ( #739 ) ) ;
#30 = DIRECTION ( 'NONE',  ( -0.000000000000000000, -1.020425574104003876E-16, -1.000000000000000000 ) ) ;
#31 = CARTESIAN_POINT ( 'NONE',  ( 0.000000000000000000, 19.99999999999999645, 3.000000000000000000 ) ) ;
#32 = EDGE_LOOP ( 'NONE', ( #422, #510, #243, #63, #696 ) ) ;
#33 = CIRCLE ( 'NONE', #567, 2.250000000000001776 ) ;
#34 = DIRECTION ( 'NONE',  ( 0.000000000000000000, 0.000000000000000000, -1.000000000000000000 ) ) ;
#35 = EDGE_CURVE ( 'NONE', #499, #357, #172, .T. ) ;
#36 = ADVANCED_BREP_SHAPE_REPRESENTATION ( '\X2\76d65b50\X0\', ( #234, #95 ), #272 ) ;
#37 = CYLINDRICAL_SURFACE ( 'NONE', #439, 2.250000000000001776 ) ;
#38 = VECTOR ( 'NONE', #213, 1000.000000000000000 ) ;
#39 = CARTESIAN_POINT ( 'NONE',  ( 0.000000000000000000, 0.000000000000000000, 0.000000000000000000 ) ) ;
#40 = EDGE_CURVE ( 'NONE', #499, #634, #738, .T. ) ;
#41 = CARTESIAN_POINT ( 'NONE',  ( 222.9999999999997442, 8.499999999999980460, 0.000000000000000000 ) ) ;
#42 = DIRECTION ( 'NONE',  ( -0.000000000000000000, -1.000000000000000000, -0.000000000000000000 ) ) ;
#43 = CIRCLE ( 'NONE', #309, 2.250000000000001776 ) ;
#44 = CARTESIAN_POINT ( 'NONE',  ( 222.9999999999997442, 8.499999999999980460, 0.000000000000000000 ) ) ;
#45 = ORIENTED_EDGE ( 'NONE', *, *, #412, .T. ) ;
#46 = LOCAL_TIME ( 19, 25, 49.00000000000000000, #636 ) ;
#47 = ADVANCED_FACE ( 'NONE', ( #411 ), #407, .F. ) ;
#48 = PLANE ( 'NONE',  #320 ) ;
#49 = CARTESIAN_POINT ( 'NONE',  ( 230.0000000000000000, 19.99999999999999645, -5.000000000000000000 ) ) ;
#50 = DATE_AND_TIME ( #766, #59 ) ;
#51 = LINE ( 'NONE', #550, #175 ) ;
#52 = CARTESIAN_POINT ( 'NONE',  ( 0.000000000000000000, 0.000000000000000000, -17.00000000000000000 ) ) ;
#53 = DIRECTION ( 'NONE',  ( 0.000000000000000000, 1.000000000000000000, -0.000000000000000000 ) ) ;
#54 = AXIS2_PLACEMENT_3D ( 'NONE', #207, #334, #571 ) ;
#55 = EDGE_LOOP ( 'NONE', ( #580, #750, #434, #440 ) ) ;
#56 = DESIGN_CONTEXT ( 'detailed design', #92, 'design' ) ;
#57 = LINE ( 'NONE', #238, #466 ) ;
#58 = ADVANCED_FACE ( 'NONE', ( #260, #575, #153 ), #456, .T. ) ;
#59 = LOCAL_TIME ( 19, 25, 49.00000000000000000, #273 ) ;
#60 = VERTEX_POINT ( 'NONE', #451 ) ;
#61 = EDGE_LOOP ( 'NONE', ( #686, #694 ) ) ;
#62 = CARTESIAN_POINT ( 'NONE',  ( 33.00000000000016342, 0.000000000000000000, -6.099999999999766942 ) ) ;
#63 = ORIENTED_EDGE ( 'NONE', *, *, #655, .T. ) ;
#64 = EDGE_CURVE ( 'NONE', #117, #185, #711, .T. ) ;
#65 = ORIENTED_EDGE ( 'NONE', *, *, #138, .F. ) ;
#66 = DIRECTION ( 'NONE',  ( 0.000000000000000000, 1.000000000000000000, 0.000000000000000000 ) ) ;
#67 = DIRECTION ( 'NONE',  ( -1.000000000000000000, 0.000000000000000000, 0.000000000000000000 ) ) ;
#68 = VERTEX_POINT ( 'NONE', #402 ) ;
#69 = ORIENTED_EDGE ( 'NONE', *, *, #779, .T. ) ;
#70 = APPROVAL_ROLE ( '' ) ;
#71 = CIRCLE ( 'NONE', #103, 2.250000000000001776 ) ;
#72 = DIRECTION ( 'NONE',  ( -1.000000000000000000, 0.000000000000000000, 0.000000000000000000 ) ) ;
#73 = CIRCLE ( 'NONE', #593, 1.899999999999991918 ) ;
#74 = ORIENTED_EDGE ( 'NONE', *, *, #210, .F. ) ;
#75 = VERTEX_POINT ( 'NONE', #158 ) ;
#76 = CALENDAR_DATE ( 2025, 8, 12 ) ;
#77 = EDGE_CURVE ( 'NONE', #337, #505, #214, .T. ) ;
#78 = DIRECTION ( 'NONE',  ( 0.000000000000000000, 1.000000000000000000, 0.000000000000000000 ) ) ;
#79 = CARTESIAN_POINT ( 'NONE',  ( 0.000000000000000000, 0.000000000000000000, 0.000000000000000000 ) ) ;
#80 = EDGE_LOOP ( 'NONE', ( #558, #121 ) ) ;
#81 = PERSON_AND_ORGANIZATION_ROLE ( 'design_owner' ) ;
#82 = APPROVAL ( #591, 'æœª' ) ;
#83 = FACE_BOUND ( 'NONE', #671, .T. ) ;
#84 = FACE_BOUND ( 'NONE', #265, .T. ) ;
#85 = ORIENTED_EDGE ( 'NONE', *, *, #779, .F. ) ;
#86 = VECTOR ( 'NONE', #30, 1000.000000000000000 ) ;
#87 = PERSON_AND_ORGANIZATION_ROLE ( 'design_supplier' ) ;
#88 = DIRECTION ( 'NONE',  ( 0.000000000000000000, 1.000000000000000000, 0.000000000000000000 ) ) ;
#89 = CARTESIAN_POINT ( 'NONE',  ( 90.24999999999977263, 8.499999999999980460, 0.000000000000000000 ) ) ;
#90 = VECTOR ( 'NONE', #15, 1000.000000000000000 ) ;
#91 = EDGE_CURVE ( 'NONE', #383, #68, #144, .T. ) ;
#92 = APPLICATION_CONTEXT ( 'configuration controlled 3d designs of mechanical parts and assemblies' ) ;
#93 = ORIENTED_EDGE ( 'NONE', *, *, #282, .F. ) ;
#94 = DIRECTION ( 'NONE',  ( 0.000000000000000000, 0.000000000000000000, -1.000000000000000000 ) ) ;
#95 = AXIS2_PLACEMENT_3D ( 'NONE', #135, #326, #569 ) ;
#96 = FACE_BOUND ( 'NONE', #435, .T. ) ;
#97 = CC_DESIGN_PERSON_AND_ORGANIZATION_ASSIGNMENT ( #582, #21, ( #470 ) ) ;
#98 = DATE_AND_TIME ( #491, #380 ) ;
#99 = DIRECTION ( 'NONE',  ( -0.000000000000000000, -1.000000000000000000, -0.000000000000000000 ) ) ;
#100 = COORDINATED_UNIVERSAL_TIME_OFFSET ( 8, 0, .AHEAD. ) ;
#101 = EDGE_CURVE ( 'NONE', #137, #726, #71, .T. ) ;
#102 = CARTESIAN_POINT ( 'NONE',  ( 33.00000000000016342, -8.000000000000001776, -9.899999999999755218 ) ) ;
#103 = AXIS2_PLACEMENT_3D ( 'NONE', #398, #220, #761 ) ;
#104 = VECTOR ( 'NONE', #677, 1000.000000000000000 ) ;
#105 = EDGE_CURVE ( 'NONE', #256, #60, #503, .T. ) ;
#106 = DIRECTION ( 'NONE',  ( -1.000000000000000000, 0.000000000000000000, 0.000000000000000000 ) ) ;
#107 = CARTESIAN_POINT ( 'NONE',  ( 225.2499999999997442, 8.499999999999980460, 3.000000000000002665 ) ) ;
#108 = ORIENTED_EDGE ( 'NONE', *, *, #602, .F. ) ;
#109 = DIRECTION ( 'NONE',  ( 0.000000000000000000, 0.000000000000000000, -1.000000000000000000 ) ) ;
#110 = VECTOR ( 'NONE', #126, 1000.000000000000000 ) ;
#111 = FACE_OUTER_BOUND ( 'NONE', #372, .T. ) ;
#112 = ORIENTED_EDGE ( 'NONE', *, *, #198, .F. ) ;
#113 = ADVANCED_FACE ( 'NONE', ( #263, #350, #96, #84 ), #578, .T. ) ;
#114 = ORIENTED_EDGE ( 'NONE', *, *, #64, .F. ) ;
#115 = AXIS2_PLACEMENT_3D ( 'NONE', #311, #557, #487 ) ;
#116 = DIRECTION ( 'NONE',  ( -1.000000000000000000, 0.000000000000000000, 0.000000000000000000 ) ) ;
#117 = VERTEX_POINT ( 'NONE', #533 ) ;
#118 = APPROVAL_DATE_TIME ( #98, #82 ) ;
#119 = ADVANCED_FACE ( 'NONE', ( #347 ), #589, .F. ) ;
#120 = CARTESIAN_POINT ( 'NONE',  ( 230.0000000000000000, 18.00000000000000000, 0.000000000000000000 ) ) ;
#121 = ORIENTED_EDGE ( 'NONE', *, *, #264, .F. ) ;
#122 = EDGE_CURVE ( 'NONE', #117, #562, #18, .T. ) ;
#123 = FACE_OUTER_BOUND ( 'NONE', #246, .T. ) ;
#124 = ORIENTED_EDGE ( 'NONE', *, *, #14, .F. ) ;
#125 = VERTEX_POINT ( 'NONE', #759 ) ;
#126 = DIRECTION ( 'NONE',  ( -0.000000000000000000, -1.000000000000000000, -0.000000000000000000 ) ) ;
#127 = CARTESIAN_POINT ( 'NONE',  ( 68.99999999999991473, 8.499999999999980460, 3.000000000000002665 ) ) ;
#128 = ORIENTED_EDGE ( 'NONE', *, *, #614, .T. ) ;
#129 = ORIENTED_EDGE ( 'NONE', *, *, #286, .F. ) ;
#130 = LOCAL_TIME ( 19, 25, 49.00000000000000000, #757 ) ;
#131 = DIRECTION ( 'NONE',  ( 0.000000000000000000, 0.000000000000000000, -1.000000000000000000 ) ) ;
#132 = CARTESIAN_POINT ( 'NONE',  ( 230.0000000000000000, -8.000000000000001776, -17.00000000000000000 ) ) ;
#133 = ORIENTED_EDGE ( 'NONE', *, *, #264, .T. ) ;
#134 = ORIENTED_EDGE ( 'NONE', *, *, #546, .T. ) ;
#135 = CARTESIAN_POINT ( 'NONE',  ( 0.000000000000000000, 0.000000000000000000, 0.000000000000000000 ) ) ;
#136 = DIRECTION ( 'NONE',  ( -1.000000000000000000, 0.000000000000000000, 0.000000000000000000 ) ) ;
#137 = VERTEX_POINT ( 'NONE', #89 ) ;
#138 = EDGE_CURVE ( 'NONE', #185, #524, #269, .T. ) ;
#139 = EDGE_LOOP ( 'NONE', ( #193, #556 ) ) ;
#140 = VECTOR ( 'NONE', #109, 1000.000000000000000 ) ;
#141 = PERSON_AND_ORGANIZATION ( #289, #195 ) ;
#142 = DIRECTION ( 'NONE',  ( -1.000000000000000000, -0.000000000000000000, -0.000000000000000000 ) ) ;
#143 = VECTOR ( 'NONE', #733, 1000.000000000000000 ) ;
#144 = LINE ( 'NONE', #642, #315 ) ;
#145 = ORIENTED_EDGE ( 'NONE', *, *, #77, .T. ) ;
#146 = EDGE_CURVE ( 'NONE', #426, #305, #283, .T. ) ;
#147 = CARTESIAN_POINT ( 'NONE',  ( 66.74999999999990052, 8.499999999999980460, 0.000000000000000000 ) ) ;
#148 = CARTESIAN_POINT ( 'NONE',  ( 230.0000000000000000, -8.000000000000000000, 3.000000000000000888 ) ) ;
#149 = AXIS2_PLACEMENT_3D ( 'NONE', #242, #199, #572 ) ;
#150 = APPLICATION_PROTOCOL_DEFINITION ( 'international standard', 'config_control_design', 1994, #92 ) ;
#151 = EDGE_CURVE ( 'NONE', #740, #539, #581, .T. ) ;
#152 = FACE_OUTER_BOUND ( 'NONE', #200, .T. ) ;
#153 = FACE_BOUND ( 'NONE', #80, .T. ) ;
#154 =( NAMED_UNIT ( * ) PLANE_ANGLE_UNIT ( ) SI_UNIT ( $, .RADIAN. ) );
#155 = DIRECTION ( 'NONE',  ( -0.000000000000000000, -0.000000000000000000, -1.000000000000000000 ) ) ;
#156 = AXIS2_PLACEMENT_3D ( 'NONE', #723, #365, #361 ) ;
#157 = EDGE_CURVE ( 'NONE', #555, #730, #765, .T. ) ;
#158 = CARTESIAN_POINT ( 'NONE',  ( 40.00000000000000711, 0.000000000000000000, -17.00000000000000000 ) ) ;
#159 = VECTOR ( 'NONE', #743, 1000.000000000000000 ) ;
#160 = ORIENTED_EDGE ( 'NONE', *, *, #417, .T. ) ;
#161 = CARTESIAN_POINT ( 'NONE',  ( 230.0000000000000000, 0.000000000000000000, -17.00000000000000000 ) ) ;
#162 = DIRECTION ( 'NONE',  ( -1.000000000000000000, 0.000000000000000000, 0.000000000000000000 ) ) ;
#163 = DIRECTION ( 'NONE',  ( 0.000000000000000000, 1.000000000000000000, -0.000000000000000000 ) ) ;
#164 = LINE ( 'NONE', #425, #658 ) ;
#165 = EDGE_LOOP ( 'NONE', ( #160, #255 ) ) ;
#166 = EDGE_CURVE ( 'NONE', #75, #555, #772, .T. ) ;
#167 = AXIS2_PLACEMENT_3D ( 'NONE', #583, #155, #770 ) ;
#168 = DIRECTION ( 'NONE',  ( 0.000000000000000000, 0.000000000000000000, 1.000000000000000000 ) ) ;
#169 = AXIS2_PLACEMENT_3D ( 'NONE', #24, #209, #27 ) ;
#170 = APPROVAL_PERSON_ORGANIZATION ( #428, #82, #277 ) ;
#171 = LINE ( 'NONE', #419, #228 ) ;
#172 = CIRCLE ( 'NONE', #276, 1.899999999999995470 ) ;
#173 = DIRECTION ( 'NONE',  ( 1.000000000000000000, 0.000000000000000000, 0.000000000000000000 ) ) ;
#174 = EDGE_LOOP ( 'NONE', ( #509, #308, #445, #643 ) ) ;
#175 = VECTOR ( 'NONE', #66, 1000.000000000000000 ) ;
#176 = CARTESIAN_POINT ( 'NONE',  ( 87.99999999999977263, 8.499999999999980460, 230.0000000000000000 ) ) ;
#177 = PRODUCT_RELATED_PRODUCT_CATEGORY ( 'detail', '', ( #739 ) ) ;
#178 = AXIS2_PLACEMENT_3D ( 'NONE', #79, #464, #519 ) ;
#179 = ORIENTED_EDGE ( 'NONE', *, *, #442, .T. ) ;
#180 = DIRECTION ( 'NONE',  ( 0.000000000000000000, 0.000000000000000000, -1.000000000000000000 ) ) ;
#181 = PLANE ( 'NONE',  #720 ) ;
#182 = ORIENTED_EDGE ( 'NONE', *, *, #151, .F. ) ;
#183 = EDGE_CURVE ( 'NONE', #75, #383, #781, .T. ) ;
#184 = LINE ( 'NONE', #49, #404 ) ;
#185 = VERTEX_POINT ( 'NONE', #31 ) ;
#186 = VERTEX_POINT ( 'NONE', #102 ) ;
#187 = CARTESIAN_POINT ( 'NONE',  ( 5.000000000000164313, -8.000000000000000000, -6.099999999999799805 ) ) ;
#188 = CARTESIAN_POINT ( 'NONE',  ( 40.00000000000000711, 0.000000000000000000, 3.000000000000000000 ) ) ;
#189 = ORIENTED_EDGE ( 'NONE', *, *, #291, .T. ) ;
#190 = AXIS2_PLACEMENT_3D ( 'NONE', #512, #332, #72 ) ;
#191 = EDGE_LOOP ( 'NONE', ( #236, #364, #355, #250 ) ) ;
#192 = CARTESIAN_POINT ( 'NONE',  ( 230.0000000000000000, 19.99999999999999645, -5.000000000000000000 ) ) ;
#193 = ORIENTED_EDGE ( 'NONE', *, *, #77, .F. ) ;
#194 = ORIENTED_EDGE ( 'NONE', *, *, #602, .T. ) ;
#195 = ORGANIZATION ( 'æœª', 'æœª', '' ) ;
#196 = APPROVAL_ROLE ( '' ) ;
#197 = CARTESIAN_POINT ( 'NONE',  ( 220.7499999999997442, 8.499999999999980460, 3.000000000000002665 ) ) ;
#198 = EDGE_CURVE ( 'NONE', #382, #555, #295, .T. ) ;
#199 = DIRECTION ( 'NONE',  ( -0.000000000000000000, -0.000000000000000000, -1.000000000000000000 ) ) ;
#200 = EDGE_LOOP ( 'NONE', ( #629, #20, #548, #399 ) ) ;
#201 = APPROVAL_STATUS ( 'not_yet_approved' ) ;
#202 = FACE_OUTER_BOUND ( 'NONE', #447, .T. ) ;
#203 = DIRECTION ( 'NONE',  ( -0.000000000000000000, -0.000000000000000000, 1.000000000000000000 ) ) ;
#204 = CC_DESIGN_DATE_AND_TIME_ASSIGNMENT ( #50, #281, ( #470 ) ) ;
#205 = ORIENTED_EDGE ( 'NONE', *, *, #520, .F. ) ;
#206 = CIRCLE ( 'NONE', #657, 1.899999999999991918 ) ;
#207 = CARTESIAN_POINT ( 'NONE',  ( 0.000000000000000000, 19.99999999999999645, -5.000000000000000000 ) ) ;
#208 = VECTOR ( 'NONE', #1, 1000.000000000000000 ) ;
#209 = DIRECTION ( 'NONE',  ( 0.000000000000000000, 0.000000000000000000, -1.000000000000000000 ) ) ;
#210 = EDGE_CURVE ( 'NONE', #498, #599, #620, .T. ) ;
#211 = PERSON_AND_ORGANIZATION ( #289, #195 ) ;
#212 = LINE ( 'NONE', #459, #360 ) ;
#213 = DIRECTION ( 'NONE',  ( -0.000000000000000000, -1.000000000000000000, -0.000000000000000000 ) ) ;
#214 = CIRCLE ( 'NONE', #666, 1.899999999999991918 ) ;
#215 = CARTESIAN_POINT ( 'NONE',  ( 230.0000000000000000, 0.000000000000000000, 3.000000000000000000 ) ) ;
#216 = DIRECTION ( 'NONE',  ( 0.000000000000000000, 1.000000000000000000, -0.000000000000000000 ) ) ;
#217 = CARTESIAN_POINT ( 'NONE',  ( 230.0000000000000000, 0.000000000000000000, 3.000000000000000000 ) ) ;
#218 = DIRECTION ( 'NONE',  ( -0.000000000000000000, -1.000000000000000000, -0.000000000000000000 ) ) ;
#219 = AXIS2_PLACEMENT_3D ( 'NONE', #565, #437, #553 ) ;
#220 = DIRECTION ( 'NONE',  ( 0.000000000000000000, 0.000000000000000000, -1.000000000000000000 ) ) ;
#221 = PLANE ( 'NONE',  #780 ) ;
#222 = DIRECTION ( 'NONE',  ( -0.000000000000000000, -0.000000000000000000, 1.000000000000000000 ) ) ;
#223 = EDGE_CURVE ( 'NONE', #756, #322, #251, .T. ) ;
#224 = LINE ( 'NONE', #668, #140 ) ;
#225 = LINE ( 'NONE', #484, #749 ) ;
#226 = FACE_OUTER_BOUND ( 'NONE', #649, .T. ) ;
#227 = CYLINDRICAL_SURFACE ( 'NONE', #352, 2.250000000000001776 ) ;
#228 = VECTOR ( 'NONE', #233, 1000.000000000000000 ) ;
#229 = EDGE_CURVE ( 'NONE', #562, #413, #290, .T. ) ;
#230 = CARTESIAN_POINT ( 'NONE',  ( 0.000000000000000000, 18.00000000000000000, 3.000000000000000000 ) ) ;
#231 = CC_DESIGN_PERSON_AND_ORGANIZATION_ASSIGNMENT ( #211, #400, ( #753 ) ) ;
#232 = CARTESIAN_POINT ( 'NONE',  ( 40.00000000000000711, -8.000000000000000000, 3.000000000000000888 ) ) ;
#233 = DIRECTION ( 'NONE',  ( -1.000000000000000000, -0.000000000000000000, -0.000000000000000000 ) ) ;
#234 = MANIFOLD_SOLID_BREP ( '\X2\52079664\X0\-\X2\62c94f38\X0\3', #528 ) ;
#235 = ORIENTED_EDGE ( 'NONE', *, *, #782, .F. ) ;
#236 = ORIENTED_EDGE ( 'NONE', *, *, #659, .F. ) ;
#237 = AXIS2_PLACEMENT_3D ( 'NONE', #288, #722, #410 ) ;
#238 = CARTESIAN_POINT ( 'NONE',  ( 230.0000000000000000, 0.000000000000000000, 0.000000000000000000 ) ) ;
#239 = ADVANCED_FACE ( 'NONE', ( #547 ), #227, .F. ) ;
#240 = AXIS2_PLACEMENT_3D ( 'NONE', #44, #778, #353 ) ;
#241 = CARTESIAN_POINT ( 'NONE',  ( 0.000000000000000000, 18.00000000000000000, 0.000000000000000000 ) ) ;
#242 = CARTESIAN_POINT ( 'NONE',  ( 68.99999999999991473, 8.499999999999980460, 230.0000000000000000 ) ) ;
#243 = ORIENTED_EDGE ( 'NONE', *, *, #474, .T. ) ;
#244 = DIRECTION ( 'NONE',  ( 0.000000000000000000, 0.000000000000000000, -1.000000000000000000 ) ) ;
#245 = LINE ( 'NONE', #303, #143 ) ;
#246 = EDGE_LOOP ( 'NONE', ( #628, #534, #707, #9 ) ) ;
#247 = EDGE_LOOP ( 'NONE', ( #205, #662 ) ) ;
#248 = CARTESIAN_POINT ( 'NONE',  ( 5.000000000000164313, 0.000000000000000000, -6.099999999999799805 ) ) ;
#249 = ORIENTED_EDGE ( 'NONE', *, *, #432, .T. ) ;
#250 = ORIENTED_EDGE ( 'NONE', *, *, #223, .T. ) ;
#251 = CIRCLE ( 'NONE', #240, 2.250000000000001776 ) ;
#252 = CARTESIAN_POINT ( 'NONE',  ( 85.74999999999977263, 8.499999999999980460, 230.0000000000000000 ) ) ;
#253 = EDGE_CURVE ( 'NONE', #357, #186, #164, .T. ) ;
#254 = DIRECTION ( 'NONE',  ( 0.000000000000000000, 0.000000000000000000, -1.000000000000000000 ) ) ;
#255 = ORIENTED_EDGE ( 'NONE', *, *, #210, .T. ) ;
#256 = VERTEX_POINT ( 'NONE', #785 ) ;
#257 = DATE_AND_TIME ( #26, #479 ) ;
#258 = EDGE_CURVE ( 'NONE', #634, #186, #323, .T. ) ;
#259 = DIRECTION ( 'NONE',  ( 0.000000000000000000, 0.000000000000000000, 1.000000000000000000 ) ) ;
#260 = FACE_OUTER_BOUND ( 'NONE', #8, .T. ) ;
#261 = EDGE_LOOP ( 'NONE', ( #74, #134, #310, #93 ) ) ;
#262 = PLANE ( 'NONE',  #294 ) ;
#263 = FACE_OUTER_BOUND ( 'NONE', #692, .T. ) ;
#264 = EDGE_CURVE ( 'NONE', #60, #256, #267, .T. ) ;
#265 = EDGE_LOOP ( 'NONE', ( #453, #182 ) ) ;
#266 = PERSON_AND_ORGANIZATION ( #289, #195 ) ;
#267 = CIRCLE ( 'NONE', #477, 1.899999999999988587 ) ;
#268 = LINE ( 'NONE', #764, #710 ) ;
#269 = LINE ( 'NONE', #638, #90 ) ;
#270 = EDGE_CURVE ( 'NONE', #431, #117, #171, .T. ) ;
#271 = ORIENTED_EDGE ( 'NONE', *, *, #721, .F. ) ;
#272 =( GEOMETRIC_REPRESENTATION_CONTEXT ( 3 ) GLOBAL_UNCERTAINTY_ASSIGNED_CONTEXT ( ( #741 ) ) GLOBAL_UNIT_ASSIGNED_CONTEXT ( ( #708, #154, #403 ) ) REPRESENTATION_CONTEXT ( 'NONE', 'WORKASPACE' ) );
#273 = COORDINATED_UNIVERSAL_TIME_OFFSET ( 8, 0, .AHEAD. ) ;
#274 = PLANE ( 'NONE',  #54 ) ;
#275 = DIRECTION ( 'NONE',  ( 1.000000000000000000, -0.000000000000000000, -0.000000000000000000 ) ) ;
#276 = AXIS2_PLACEMENT_3D ( 'NONE', #616, #53, #494 ) ;
#277 = APPROVAL_ROLE ( '' ) ;
#278 = DIRECTION ( 'NONE',  ( -1.000000000000000000, 0.000000000000000000, -0.000000000000000000 ) ) ;
#279 = DIRECTION ( 'NONE',  ( 0.000000000000000000, 0.000000000000000000, -1.000000000000000000 ) ) ;
#280 = ORIENTED_EDGE ( 'NONE', *, *, #101, .F. ) ;
#281 = DATE_TIME_ROLE ( 'classification_date' ) ;
#282 = EDGE_CURVE ( 'NONE', #599, #539, #225, .T. ) ;
#283 = CIRCLE ( 'NONE', #169, 2.250000000000001776 ) ;
#284 = DIRECTION ( 'NONE',  ( -0.000000000000000000, -1.000000000000000000, -0.000000000000000000 ) ) ;
#285 = CARTESIAN_POINT ( 'NONE',  ( 33.00000000000016342, -8.000000000000000000, -7.999999999999762856 ) ) ;
#286 = EDGE_CURVE ( 'NONE', #730, #667, #598, .T. ) ;
#287 = CARTESIAN_POINT ( 'NONE',  ( 5.000000000000164313, -8.000000000000001776, -7.999999999999792166 ) ) ;
#288 = CARTESIAN_POINT ( 'NONE',  ( 33.00000000000016342, -8.000000000000000000, -7.999999999999762856 ) ) ;
#289 = PERSON ( 'æœª', 'æœª', 'æœª', ('æœª'), ('æœª'), ('æœª') ) ;
#290 = LINE ( 'NONE', #230, #392 ) ;
#291 = EDGE_CURVE ( 'NONE', #3, #562, #776, .T. ) ;
#292 = AXIS2_PLACEMENT_3D ( 'NONE', #492, #314, #736 ) ;
#293 = CARTESIAN_POINT ( 'NONE',  ( 225.2499999999997442, 8.499999999999980460, 230.0000000000000000 ) ) ;
#294 = AXIS2_PLACEMENT_3D ( 'NONE', #767, #88, #22 ) ;
#295 = LINE ( 'NONE', #39, #362 ) ;
#296 = VECTOR ( 'NONE', #473, 1000.000000000000000 ) ;
#297 = ADVANCED_FACE ( 'NONE', ( #420 ), #37, .F. ) ;
#298 = LINE ( 'NONE', #293, #577 ) ;
#299 = DIRECTION ( 'NONE',  ( 0.000000000000000000, 0.000000000000000000, -1.000000000000000000 ) ) ;
#300 = CC_DESIGN_APPROVAL ( #468, ( #762 ) ) ;
#301 = ORIENTED_EDGE ( 'NONE', *, *, #166, .F. ) ;
#302 = CARTESIAN_POINT ( 'NONE',  ( 0.000000000000000000, 19.99999999999999645, 3.000000000000000000 ) ) ;
#303 = CARTESIAN_POINT ( 'NONE',  ( 0.000000000000000000, 0.000000000000000000, 0.000000000000000000 ) ) ;
#304 = EDGE_LOOP ( 'NONE', ( #189, #608, #568, #45 ) ) ;
#305 = VERTEX_POINT ( 'NONE', #107 ) ;
#306 = EDGE_CURVE ( 'NONE', #426, #756, #415, .T. ) ;
#307 = FACE_OUTER_BOUND ( 'NONE', #25, .T. ) ;
#308 = ORIENTED_EDGE ( 'NONE', *, *, #417, .F. ) ;
#309 = AXIS2_PLACEMENT_3D ( 'NONE', #680, #754, #430 ) ;
#310 = ORIENTED_EDGE ( 'NONE', *, *, #151, .T. ) ;
#311 = CARTESIAN_POINT ( 'NONE',  ( 87.99999999999977263, 8.499999999999980460, 0.000000000000000000 ) ) ;
#312 = ORIENTED_EDGE ( 'NONE', *, *, #432, .F. ) ;
#313 = ORIENTED_EDGE ( 'NONE', *, *, #306, .F. ) ;
#314 = DIRECTION ( 'NONE',  ( 0.000000000000000000, 0.000000000000000000, -1.000000000000000000 ) ) ;
#315 = VECTOR ( 'NONE', #394, 1000.000000000000000 ) ;
#316 = DIRECTION ( 'NONE',  ( 0.000000000000000000, 0.000000000000000000, -1.000000000000000000 ) ) ;
#317 = VERTEX_POINT ( 'NONE', #601 ) ;
#318 = ORIENTED_EDGE ( 'NONE', *, *, #452, .T. ) ;
#319 = CARTESIAN_POINT ( 'NONE',  ( 0.000000000000000000, 0.000000000000000000, 0.000000000000000000 ) ) ;
#320 = AXIS2_PLACEMENT_3D ( 'NONE', #552, #441, #688 ) ;
#321 = CARTESIAN_POINT ( 'NONE',  ( 230.0000000000000000, 18.00000000000000000, -5.000000000000000000 ) ) ;
#322 = VERTEX_POINT ( 'NONE', #669 ) ;
#323 = CIRCLE ( 'NONE', #377, 1.899999999999991918 ) ;
#324 = ADVANCED_FACE ( 'NONE', ( #481 ), #725, .F. ) ;
#325 = VECTOR ( 'NONE', #254, 1000.000000000000000 ) ;
#326 = DIRECTION ( 'NONE',  ( 0.000000000000000000, 0.000000000000000000, 1.000000000000000000 ) ) ;
#327 = LINE ( 'NONE', #697, #729 ) ;
#328 = ORIENTED_EDGE ( 'NONE', *, *, #436, .T. ) ;
#329 = EDGE_LOOP ( 'NONE', ( #687, #622, #371, #85 ) ) ;
#330 = DATE_AND_TIME ( #76, #46 ) ;
#331 = ADVANCED_FACE ( 'NONE', ( #111 ), #728, .F. ) ;
#332 = DIRECTION ( 'NONE',  ( -0.000000000000000000, -0.000000000000000000, -1.000000000000000000 ) ) ;
#333 = CARTESIAN_POINT ( 'NONE',  ( 87.99999999999977263, 8.499999999999980460, 230.0000000000000000 ) ) ;
#334 = DIRECTION ( 'NONE',  ( 0.000000000000000000, 0.000000000000000000, 1.000000000000000000 ) ) ;
#335 = APPROVAL ( #526, 'æœª' ) ;
#336 = DIRECTION ( 'NONE',  ( -1.000000000000000000, 0.000000000000000000, 0.000000000000000000 ) ) ;
#337 = VERTEX_POINT ( 'NONE', #789 ) ;
#338 = SECURITY_CLASSIFICATION_LEVEL ( 'unclassified' ) ;
#339 = DIRECTION ( 'NONE',  ( 0.000000000000000000, 0.000000000000000000, 1.000000000000000000 ) ) ;
#340 = CARTESIAN_POINT ( 'NONE',  ( 0.000000000000000000, 19.99999999999999645, 3.000000000000000000 ) ) ;
#341 = CC_DESIGN_APPROVAL ( #82, ( #470 ) ) ;
#342 = ORIENTED_EDGE ( 'NONE', *, *, #458, .F. ) ;
#343 = CC_DESIGN_APPROVAL ( #335, ( #753 ) ) ;
#344 = PERSON_AND_ORGANIZATION ( #289, #195 ) ;
#345 = APPLICATION_CONTEXT ( 'configuration controlled 3d designs of mechanical parts and assemblies' ) ;
#346 = CARTESIAN_POINT ( 'NONE',  ( 33.00000000000016342, -8.000000000000001776, -6.099999999999770495 ) ) ;
#347 = FACE_OUTER_BOUND ( 'NONE', #12, .T. ) ;
#348 = EDGE_CURVE ( 'NONE', #490, #125, #773, .T. ) ;
#349 = CARTESIAN_POINT ( 'NONE',  ( 40.00000000000000711, -8.000000000000001776, -17.00000000000000000 ) ) ;
#350 = FACE_BOUND ( 'NONE', #681, .T. ) ;
#351 = CC_DESIGN_PERSON_AND_ORGANIZATION_ASSIGNMENT ( #644, #87, ( #753 ) ) ;
#352 = AXIS2_PLACEMENT_3D ( 'NONE', #176, #545, #106 ) ;
#353 = DIRECTION ( 'NONE',  ( -1.000000000000000000, 0.000000000000000000, 0.000000000000000000 ) ) ;
#354 = CIRCLE ( 'NONE', #115, 2.250000000000001776 ) ;
#355 = ORIENTED_EDGE ( 'NONE', *, *, #306, .T. ) ;
#356 = CARTESIAN_POINT ( 'NONE',  ( 33.00000000000016342, -8.000000000000001776, -7.999999999999762856 ) ) ;
#357 = VERTEX_POINT ( 'NONE', #370 ) ;
#358 = CARTESIAN_POINT ( 'NONE',  ( 230.0000000000000000, 0.000000000000000000, 3.000000000000000000 ) ) ;
#359 = CARTESIAN_POINT ( 'NONE',  ( 220.7499999999997442, 8.499999999999980460, 230.0000000000000000 ) ) ;
#360 = VECTOR ( 'NONE', #709, 1000.000000000000000 ) ;
#361 = DIRECTION ( 'NONE',  ( -1.000000000000000000, 0.000000000000000000, 0.000000000000000000 ) ) ;
#362 = VECTOR ( 'NONE', #173, 1000.000000000000000 ) ;
#363 = ORIENTED_EDGE ( 'NONE', *, *, #270, .T. ) ;
#364 = ORIENTED_EDGE ( 'NONE', *, *, #146, .F. ) ;
#365 = DIRECTION ( 'NONE',  ( 0.000000000000000000, 0.000000000000000000, -1.000000000000000000 ) ) ;
#366 = ORIENTED_EDGE ( 'NONE', *, *, #721, .T. ) ;
#367 = SHAPE_DEFINITION_REPRESENTATION ( #376, #36 ) ;
#368 = ORIENTED_EDGE ( 'NONE', *, *, #395, .T. ) ;
#369 = CARTESIAN_POINT ( 'NONE',  ( 71.24999999999991473, 8.499999999999980460, 0.000000000000000000 ) ) ;
#370 = CARTESIAN_POINT ( 'NONE',  ( 33.00000000000016342, 0.000000000000000000, -9.899999999999758771 ) ) ;
#371 = ORIENTED_EDGE ( 'NONE', *, *, #101, .T. ) ;
#372 = EDGE_LOOP ( 'NONE', ( #145, #366, #133, #563 ) ) ;
#373 = AXIS2_PLACEMENT_3D ( 'NONE', #746, #618, #244 ) ;
#374 = DIRECTION ( 'NONE',  ( 0.000000000000000000, -0.000000000000000000, -1.000000000000000000 ) ) ;
#375 = ORIENTED_EDGE ( 'NONE', *, *, #183, .T. ) ;
#376 = PRODUCT_DEFINITION_SHAPE ( 'NONE', 'NONE',  #762 ) ;
#377 = AXIS2_PLACEMENT_3D ( 'NONE', #356, #284, #661 ) ;
#378 = ORIENTED_EDGE ( 'NONE', *, *, #701, .T. ) ;
#379 = CARTESIAN_POINT ( 'NONE',  ( 230.0000000000000000, 0.000000000000000000, 2.890309144481143679E-15 ) ) ;
#380 = LOCAL_TIME ( 19, 25, 49.00000000000000000, #100 ) ;
#381 = CARTESIAN_POINT ( 'NONE',  ( 90.24999999999977263, 8.499999999999980460, 3.000000000000002665 ) ) ;
#382 = VERTEX_POINT ( 'NONE', #319 ) ;
#383 = VERTEX_POINT ( 'NONE', #52 ) ;
#384 = LINE ( 'NONE', #737, #325 ) ;
#385 = ORIENTED_EDGE ( 'NONE', *, *, #635, .F. ) ;
#386 = CC_DESIGN_DATE_AND_TIME_ASSIGNMENT ( #521, #16, ( #762 ) ) ;
#387 = ORIENTED_EDGE ( 'NONE', *, *, #91, .F. ) ;
#388 = APPROVAL_DATE_TIME ( #257, #468 ) ;
#389 = CARTESIAN_POINT ( 'NONE',  ( 71.24999999999991473, 8.499999999999980460, 230.0000000000000000 ) ) ;
#390 = ORIENTED_EDGE ( 'NONE', *, *, #462, .T. ) ;
#391 = ORIENTED_EDGE ( 'NONE', *, *, #458, .T. ) ;
#392 = VECTOR ( 'NONE', #222, 1000.000000000000000 ) ;
#393 = DIRECTION ( 'NONE',  ( -0.000000000000000000, -0.000000000000000000, -1.000000000000000000 ) ) ;
#394 = DIRECTION ( 'NONE',  ( -0.000000000000000000, -1.000000000000000000, -0.000000000000000000 ) ) ;
#395 = EDGE_CURVE ( 'NONE', #125, #490, #43, .T. ) ;
#396 = LINE ( 'NONE', #588, #475 ) ;
#397 = VECTOR ( 'NONE', #791, 1000.000000000000000 ) ;
#398 = CARTESIAN_POINT ( 'NONE',  ( 87.99999999999977263, 8.499999999999980460, 0.000000000000000000 ) ) ;
#399 = ORIENTED_EDGE ( 'NONE', *, *, #157, .T. ) ;
#400 = PERSON_AND_ORGANIZATION_ROLE ( 'creator' ) ;
#401 = CARTESIAN_POINT ( 'NONE',  ( 90.24999999999977263, 8.499999999999980460, 230.0000000000000000 ) ) ;
#402 = CARTESIAN_POINT ( 'NONE',  ( 0.000000000000000000, -8.000000000000001776, -17.00000000000000000 ) ) ;
#403 =( NAMED_UNIT ( * ) SI_UNIT ( $, .STERADIAN. ) SOLID_ANGLE_UNIT ( ) );
#404 = VECTOR ( 'NONE', #787, 1000.000000000000000 ) ;
#405 = AXIS2_PLACEMENT_3D ( 'NONE', #748, #561, #136 ) ;
#406 = FACE_BOUND ( 'NONE', #795, .T. ) ;
#407 = CYLINDRICAL_SURFACE ( 'NONE', #793, 2.250000000000001776 ) ;
#408 = ADVANCED_FACE ( 'NONE', ( #307 ), #181, .T. ) ;
#409 = ORIENTED_EDGE ( 'NONE', *, *, #105, .T. ) ;
#410 = DIRECTION ( 'NONE',  ( 0.000000000000000000, 0.000000000000000000, -1.000000000000000000 ) ) ;
#411 = FACE_OUTER_BOUND ( 'NONE', #682, .T. ) ;
#412 = EDGE_CURVE ( 'NONE', #431, #3, #184, .T. ) ;
#413 = VERTEX_POINT ( 'NONE', #433 ) ;
#414 = CYLINDRICAL_SURFACE ( 'NONE', #544, 1.899999999999995470 ) ;
#415 = LINE ( 'NONE', #359, #788 ) ;
#416 = ORIENTED_EDGE ( 'NONE', *, *, #769, .T. ) ;
#417 = EDGE_CURVE ( 'NONE', #599, #498, #33, .T. ) ;
#418 = DIRECTION ( 'NONE',  ( -1.000000000000000000, 0.000000000000000000, 0.000000000000000000 ) ) ;
#419 = CARTESIAN_POINT ( 'NONE',  ( 0.000000000000000000, 19.99999999999999645, -5.000000000000000000 ) ) ;
#420 = FACE_OUTER_BOUND ( 'NONE', #444, .T. ) ;
#421 = CARTESIAN_POINT ( 'NONE',  ( 222.9999999999997442, 8.499999999999980460, 230.0000000000000000 ) ) ;
#422 = ORIENTED_EDGE ( 'NONE', *, *, #166, .T. ) ;
#423 = ORIENTED_EDGE ( 'NONE', *, *, #790, .F. ) ;
#424 = AXIS2_PLACEMENT_3D ( 'NONE', #486, #131, #626 ) ;
#425 = CARTESIAN_POINT ( 'NONE',  ( 33.00000000000016342, -8.000000000000000000, -9.899999999999758771 ) ) ;
#426 = VERTEX_POINT ( 'NONE', #197 ) ;
#427 = ADVANCED_FACE ( 'NONE', ( #123 ), #619, .T. ) ;
#428 = PERSON_AND_ORGANIZATION ( #289, #195 ) ;
#429 = CARTESIAN_POINT ( 'NONE',  ( 85.74999999999977263, 8.499999999999980460, 0.000000000000000000 ) ) ;
#430 = DIRECTION ( 'NONE',  ( -1.000000000000000000, 0.000000000000000000, 0.000000000000000000 ) ) ;
#431 = VERTEX_POINT ( 'NONE', #192 ) ;
#432 = EDGE_CURVE ( 'NONE', #730, #482, #57, .T. ) ;
#433 = CARTESIAN_POINT ( 'NONE',  ( 0.000000000000000000, 18.00000000000000000, 0.000000000000000000 ) ) ;
#434 = ORIENTED_EDGE ( 'NONE', *, *, #258, .T. ) ;
#435 = EDGE_LOOP ( 'NONE', ( #744, #280 ) ) ;
#436 = EDGE_CURVE ( 'NONE', #726, #137, #354, .T. ) ;
#437 = DIRECTION ( 'NONE',  ( -0.000000000000000000, -1.000000000000000000, -0.000000000000000000 ) ) ;
#438 = ORIENTED_EDGE ( 'NONE', *, *, #597, .T. ) ;
#439 = AXIS2_PLACEMENT_3D ( 'NONE', #421, #783, #472 ) ;
#440 = ORIENTED_EDGE ( 'NONE', *, *, #253, .F. ) ;
#441 = DIRECTION ( 'NONE',  ( 0.000000000000000000, -1.000000000000000000, 0.000000000000000000 ) ) ;
#442 = EDGE_CURVE ( 'NONE', #653, #68, #7, .T. ) ;
#443 = DIRECTION ( 'NONE',  ( 0.000000000000000000, 1.000000000000000000, 0.000000000000000000 ) ) ;
#444 = EDGE_LOOP ( 'NONE', ( #675, #745, #617, #313 ) ) ;
#445 = ORIENTED_EDGE ( 'NONE', *, *, #282, .T. ) ;
#446 = CARTESIAN_POINT ( 'NONE',  ( 0.000000000000000000, 0.000000000000000000, -17.00000000000000000 ) ) ;
#447 = EDGE_LOOP ( 'NONE', ( #124, #777, #423, #416, #235, #573 ) ) ;
#448 = ORIENTED_EDGE ( 'NONE', *, *, #769, .F. ) ;
#449 = CALENDAR_DATE ( 2025, 8, 12 ) ;
#450 = PLANE ( 'NONE',  #603 ) ;
#451 = CARTESIAN_POINT ( 'NONE',  ( 5.000000000000164313, -8.000000000000001776, -6.099999999999803357 ) ) ;
#452 = EDGE_CURVE ( 'NONE', #382, #383, #615, .T. ) ;
#453 = ORIENTED_EDGE ( 'NONE', *, *, #747, .F. ) ;
#454 = AXIS2_PLACEMENT_3D ( 'NONE', #656, #674, #168 ) ;
#455 = APPLICATION_PROTOCOL_DEFINITION ( 'international standard', 'config_control_design', 1994, #345 ) ;
#456 = PLANE ( 'NONE',  #560 ) ;
#457 = ORIENTED_EDGE ( 'NONE', *, *, #412, .F. ) ;
#458 = EDGE_CURVE ( 'NONE', #317, #431, #384, .T. ) ;
#459 = CARTESIAN_POINT ( 'NONE',  ( 0.000000000000000000, -8.000000000000000000, 3.000000000000000888 ) ) ;
#460 = DIRECTION ( 'NONE',  ( 0.000000000000000000, 0.000000000000000000, 1.000000000000000000 ) ) ;
#461 = ORIENTED_EDGE ( 'NONE', *, *, #640, .F. ) ;
#462 = EDGE_CURVE ( 'NONE', #413, #382, #245, .T. ) ;
#463 = CYLINDRICAL_SURFACE ( 'NONE', #167, 2.250000000000001776 ) ;
#464 = DIRECTION ( 'NONE',  ( 0.000000000000000000, 0.000000000000000000, -1.000000000000000000 ) ) ;
#465 = ORIENTED_EDGE ( 'NONE', *, *, #157, .F. ) ;
#466 = VECTOR ( 'NONE', #443, 1000.000000000000000 ) ;
#467 = CARTESIAN_POINT ( 'NONE',  ( 40.00000000000000711, 0.000000000000000000, 2.890309144481143679E-15 ) ) ;
#468 = APPROVAL ( #201, 'æœª' ) ;
#469 = DIRECTION ( 'NONE',  ( -0.000000000000000000, -0.000000000000000000, -1.000000000000000000 ) ) ;
#470 = SECURITY_CLASSIFICATION ( '', '', #338 ) ;
#471 = VERTEX_POINT ( 'NONE', #551 ) ;
#472 = DIRECTION ( 'NONE',  ( -1.000000000000000000, 0.000000000000000000, 0.000000000000000000 ) ) ;
#473 = DIRECTION ( 'NONE',  ( 0.000000000000000000, 0.000000000000000000, 1.000000000000000000 ) ) ;
#474 = EDGE_CURVE ( 'NONE', #471, #678, #693, .T. ) ;
#475 = VECTOR ( 'NONE', #78, 1000.000000000000000 ) ;
#476 = DIRECTION ( 'NONE',  ( -0.000000000000000000, -1.000000000000000000, -0.000000000000000000 ) ) ;
#477 = AXIS2_PLACEMENT_3D ( 'NONE', #287, #542, #299 ) ;
#478 = DIRECTION ( 'NONE',  ( -1.000000000000000000, -0.000000000000000000, -0.000000000000000000 ) ) ;
#479 = LOCAL_TIME ( 19, 25, 49.00000000000000000, #587 ) ;
#480 = DIRECTION ( 'NONE',  ( -0.000000000000000000, -1.000000000000000000, -0.000000000000000000 ) ) ;
#481 = FACE_OUTER_BOUND ( 'NONE', #32, .T. ) ;
#482 = VERTEX_POINT ( 'NONE', #120 ) ;
#483 = FACE_OUTER_BOUND ( 'NONE', #55, .T. ) ;
#484 = CARTESIAN_POINT ( 'NONE',  ( 66.74999999999990052, 8.499999999999980460, 230.0000000000000000 ) ) ;
#485 = AXIS2_PLACEMENT_3D ( 'NONE', #41, #34, #418 ) ;
#486 = CARTESIAN_POINT ( 'NONE',  ( 68.99999999999991473, 8.499999999999980460, 0.000000000000000000 ) ) ;
#487 = DIRECTION ( 'NONE',  ( -1.000000000000000000, 0.000000000000000000, 0.000000000000000000 ) ) ;
#488 = EDGE_CURVE ( 'NONE', #471, #555, #497, .T. ) ;
#489 = VECTOR ( 'NONE', #493, 1000.000000000000000 ) ;
#490 = VERTEX_POINT ( 'NONE', #381 ) ;
#491 = CALENDAR_DATE ( 2025, 8, 12 ) ;
#492 = CARTESIAN_POINT ( 'NONE',  ( 222.9999999999997442, 8.499999999999980460, 3.000000000000002665 ) ) ;
#493 = DIRECTION ( 'NONE',  ( -1.000000000000000000, 0.000000000000000000, 0.000000000000000000 ) ) ;
#494 = DIRECTION ( 'NONE',  ( 0.000000000000000000, 0.000000000000000000, 1.000000000000000000 ) ) ;
#495 = ORIENTED_EDGE ( 'NONE', *, *, #40, .F. ) ;
#496 = VECTOR ( 'NONE', #203, 1000.000000000000000 ) ;
#497 = LINE ( 'NONE', #188, #208 ) ;
#498 = VERTEX_POINT ( 'NONE', #623 ) ;
#499 = VERTEX_POINT ( 'NONE', #62 ) ;
#500 = CIRCLE ( 'NONE', #485, 2.250000000000001776 ) ;
#501 = CARTESIAN_POINT ( 'NONE',  ( 5.000000000000164313, 0.000000000000000000, -7.999999999999792166 ) ) ;
#502 = ORIENTED_EDGE ( 'NONE', *, *, #549, .F. ) ;
#503 = CIRCLE ( 'NONE', #535, 1.899999999999988587 ) ;
#504 = AXIS2_PLACEMENT_3D ( 'NONE', #241, #507, #374 ) ;
#505 = VERTEX_POINT ( 'NONE', #248 ) ;
#506 = LINE ( 'NONE', #215, #508 ) ;
#507 = DIRECTION ( 'NONE',  ( 0.000000000000000000, -1.000000000000000000, 0.000000000000000000 ) ) ;
#508 = VECTOR ( 'NONE', #511, 1000.000000000000000 ) ;
#509 = ORIENTED_EDGE ( 'NONE', *, *, #546, .F. ) ;
#510 = ORIENTED_EDGE ( 'NONE', *, *, #488, .F. ) ;
#511 = DIRECTION ( 'NONE',  ( -1.000000000000000000, 0.000000000000000000, 0.000000000000000000 ) ) ;
#512 = CARTESIAN_POINT ( 'NONE',  ( 222.9999999999997442, 8.499999999999980460, 230.0000000000000000 ) ) ;
#513 = EDGE_CURVE ( 'NONE', #505, #337, #73, .T. ) ;
#514 = CARTESIAN_POINT ( 'NONE',  ( 0.000000000000000000, 19.99999999999999645, -5.000000000000000000 ) ) ;
#515 = ORIENTED_EDGE ( 'NONE', *, *, #782, .T. ) ;
#516 = DIRECTION ( 'NONE',  ( 1.000000000000000000, 0.000000000000000000, 0.000000000000000000 ) ) ;
#517 = FACE_OUTER_BOUND ( 'NONE', #191, .T. ) ;
#518 = AXIS2_PLACEMENT_3D ( 'NONE', #541, #480, #784 ) ;
#519 = DIRECTION ( 'NONE',  ( -1.000000000000000000, 0.000000000000000000, -0.000000000000000000 ) ) ;
#520 = EDGE_CURVE ( 'NONE', #357, #499, #536, .T. ) ;
#521 = DATE_AND_TIME ( #449, #130 ) ;
#522 = LINE ( 'NONE', #389, #683 ) ;
#523 = CARTESIAN_POINT ( 'NONE',  ( 68.99999999999991473, 8.499999999999980460, 0.000000000000000000 ) ) ;
#524 = VERTEX_POINT ( 'NONE', #645 ) ;
#525 = ADVANCED_FACE ( 'NONE', ( #712 ), #463, .F. ) ;
#526 = APPROVAL_STATUS ( 'not_yet_approved' ) ;
#527 = CYLINDRICAL_SURFACE ( 'NONE', #190, 2.250000000000001776 ) ;
#528 = CLOSED_SHELL ( 'NONE', ( #690, #331, #297, #239, #525, #714, #119, #585, #113, #531, #735, #427, #670, #58, #408, #4, #47, #570, #324, #664, #695, #554 ) ) ;
#529 = DIRECTION ( 'NONE',  ( 0.000000000000000000, -8.673617379884034239E-17, -1.000000000000000000 ) ) ;
#530 = ORIENTED_EDGE ( 'NONE', *, *, #122, .T. ) ;
#531 = ADVANCED_FACE ( 'NONE', ( #703 ), #274, .F. ) ;
#532 = DIRECTION ( 'NONE',  ( -0.000000000000000000, -1.000000000000000000, -0.000000000000000000 ) ) ;
#533 = CARTESIAN_POINT ( 'NONE',  ( 0.000000000000000000, 19.99999999999999645, -5.000000000000000000 ) ) ;
#534 = ORIENTED_EDGE ( 'NONE', *, *, #635, .T. ) ;
#535 = AXIS2_PLACEMENT_3D ( 'NONE', #713, #99, #698 ) ;
#536 = CIRCLE ( 'NONE', #5, 1.899999999999995470 ) ;
#537 = CARTESIAN_POINT ( 'NONE',  ( 40.00000000000000711, -8.000000000000001776, -17.00000000000000000 ) ) ;
#538 = DIRECTION ( 'NONE',  ( -0.000000000000000000, -0.000000000000000000, 1.000000000000000000 ) ) ;
#539 = VERTEX_POINT ( 'NONE', #147 ) ;
#540 = CARTESIAN_POINT ( 'NONE',  ( 230.0000000000000000, 0.000000000000000000, 3.000000000000000000 ) ) ;
#541 = CARTESIAN_POINT ( 'NONE',  ( 5.000000000000164313, -8.000000000000000000, -7.999999999999792166 ) ) ;
#542 = DIRECTION ( 'NONE',  ( -0.000000000000000000, -1.000000000000000000, -0.000000000000000000 ) ) ;
#543 = ORIENTED_EDGE ( 'NONE', *, *, #35, .T. ) ;
#544 = AXIS2_PLACEMENT_3D ( 'NONE', #285, #476, #180 ) ;
#545 = DIRECTION ( 'NONE',  ( -0.000000000000000000, -0.000000000000000000, -1.000000000000000000 ) ) ;
#546 = EDGE_CURVE ( 'NONE', #498, #740, #522, .T. ) ;
#547 = FACE_OUTER_BOUND ( 'NONE', #329, .T. ) ;
#548 = ORIENTED_EDGE ( 'NONE', *, *, #488, .T. ) ;
#549 = EDGE_CURVE ( 'NONE', #653, #75, #396, .T. ) ;
#550 = CARTESIAN_POINT ( 'NONE',  ( 230.0000000000000000, 0.000000000000000000, 3.000000000000000000 ) ) ;
#551 = CARTESIAN_POINT ( 'NONE',  ( 40.00000000000000711, 0.000000000000000000, 3.000000000000000000 ) ) ;
#552 = CARTESIAN_POINT ( 'NONE',  ( 0.000000000000000000, 19.99999999999999645, 0.000000000000000000 ) ) ;
#553 = DIRECTION ( 'NONE',  ( 0.000000000000000000, 0.000000000000000000, -1.000000000000000000 ) ) ;
#554 = ADVANCED_FACE ( 'NONE', ( #152 ), #262, .F. ) ;
#555 = VERTEX_POINT ( 'NONE', #467 ) ;
#556 = ORIENTED_EDGE ( 'NONE', *, *, #513, .F. ) ;
#557 = DIRECTION ( 'NONE',  ( 0.000000000000000000, 0.000000000000000000, -1.000000000000000000 ) ) ;
#558 = ORIENTED_EDGE ( 'NONE', *, *, #105, .F. ) ;
#559 = ORIENTED_EDGE ( 'NONE', *, *, #655, .F. ) ;
#560 = AXIS2_PLACEMENT_3D ( 'NONE', #148, #651, #529 ) ;
#561 = DIRECTION ( 'NONE',  ( 0.000000000000000000, 0.000000000000000000, -1.000000000000000000 ) ) ;
#562 = VERTEX_POINT ( 'NONE', #641 ) ;
#563 = ORIENTED_EDGE ( 'NONE', *, *, #597, .F. ) ;
#564 = LINE ( 'NONE', #252, #630 ) ;
#565 = CARTESIAN_POINT ( 'NONE',  ( 5.000000000000164313, -8.000000000000000000, -7.999999999999792166 ) ) ;
#566 = FACE_OUTER_BOUND ( 'NONE', #174, .T. ) ;
#567 = AXIS2_PLACEMENT_3D ( 'NONE', #127, #316, #67 ) ;
#568 = ORIENTED_EDGE ( 'NONE', *, *, #270, .F. ) ;
#569 = DIRECTION ( 'NONE',  ( 1.000000000000000000, 0.000000000000000000, 0.000000000000000000 ) ) ;
#570 = ADVANCED_FACE ( 'NONE', ( #517 ), #527, .F. ) ;
#571 = DIRECTION ( 'NONE',  ( 1.000000000000000000, 0.000000000000000000, -0.000000000000000000 ) ) ;
#572 = DIRECTION ( 'NONE',  ( -1.000000000000000000, 0.000000000000000000, 0.000000000000000000 ) ) ;
#573 = ORIENTED_EDGE ( 'NONE', *, *, #138, .T. ) ;
#574 = LINE ( 'NONE', #401, #647 ) ;
#575 = FACE_BOUND ( 'NONE', #61, .T. ) ;
#576 = FACE_BOUND ( 'NONE', #165, .T. ) ;
#577 = VECTOR ( 'NONE', #718, 1000.000000000000000 ) ;
#578 = PLANE ( 'NONE',  #178 ) ;
#579 = EDGE_CURVE ( 'NONE', #490, #137, #574, .T. ) ;
#580 = ORIENTED_EDGE ( 'NONE', *, *, #520, .T. ) ;
#581 = CIRCLE ( 'NONE', #19, 2.250000000000001776 ) ;
#582 = PERSON_AND_ORGANIZATION ( #289, #195 ) ;
#583 = CARTESIAN_POINT ( 'NONE',  ( 68.99999999999991473, 8.499999999999980460, 230.0000000000000000 ) ) ;
#584 = DIRECTION ( 'NONE',  ( 0.000000000000000000, 0.000000000000000000, 1.000000000000000000 ) ) ;
#585 = ADVANCED_FACE ( 'NONE', ( #83, #406, #576, #202 ), #450, .F. ) ;
#586 = ORIENTED_EDGE ( 'NONE', *, *, #146, .T. ) ;
#587 = COORDINATED_UNIVERSAL_TIME_OFFSET ( 8, 0, .AHEAD. ) ;
#588 = CARTESIAN_POINT ( 'NONE',  ( 40.00000000000000711, -8.000000000000001776, -17.00000000000000000 ) ) ;
#589 = PLANE ( 'NONE',  #592 ) ;
#590 = DIRECTION ( 'NONE',  ( -1.000000000000000000, 0.000000000000000000, 0.000000000000000000 ) ) ;
#591 = APPROVAL_STATUS ( 'not_yet_approved' ) ;
#592 = AXIS2_PLACEMENT_3D ( 'NONE', #217, #590, #460 ) ;
#593 = AXIS2_PLACEMENT_3D ( 'NONE', #501, #216, #339 ) ;
#594 = FACE_BOUND ( 'NONE', #247, .T. ) ;
#595 = DIRECTION ( 'NONE',  ( -0.000000000000000000, -0.000000000000000000, -1.000000000000000000 ) ) ;
#596 = CYLINDRICAL_SURFACE ( 'NONE', #237, 1.899999999999995470 ) ;
#597 = EDGE_CURVE ( 'NONE', #337, #256, #268, .T. ) ;
#598 = LINE ( 'NONE', #540, #685 ) ;
#599 = VERTEX_POINT ( 'NONE', #637 ) ;
#600 = FACE_BOUND ( 'NONE', #139, .T. ) ;
#601 = CARTESIAN_POINT ( 'NONE',  ( 230.0000000000000000, 19.99999999999999645, 3.000000000000000000 ) ) ;
#602 = EDGE_CURVE ( 'NONE', #68, #524, #212, .T. ) ;
#603 = AXIS2_PLACEMENT_3D ( 'NONE', #17, #631, #278 ) ;
#604 = VECTOR ( 'NONE', #275, 1000.000000000000000 ) ;
#605 = LINE ( 'NONE', #537, #86 ) ;
#606 = CARTESIAN_POINT ( 'NONE',  ( 40.00000000000000711, 0.000000000000000000, -17.00000000000000000 ) ) ;
#607 = ORIENTED_EDGE ( 'NONE', *, *, #348, .T. ) ;
#608 = ORIENTED_EDGE ( 'NONE', *, *, #122, .F. ) ;
#609 = APPROVAL_PERSON_ORGANIZATION ( #141, #335, #70 ) ;
#610 = FACE_OUTER_BOUND ( 'NONE', #2, .T. ) ;
#611 = DIRECTION ( 'NONE',  ( 0.000000000000000000, 0.000000000000000000, -1.000000000000000000 ) ) ;
#612 = ORIENTED_EDGE ( 'NONE', *, *, #183, .F. ) ;
#613 = ORIENTED_EDGE ( 'NONE', *, *, #14, .T. ) ;
#614 = EDGE_CURVE ( 'NONE', #186, #634, #206, .T. ) ;
#615 = LINE ( 'NONE', #446, #159 ) ;
#616 = CARTESIAN_POINT ( 'NONE',  ( 33.00000000000016342, 0.000000000000000000, -7.999999999999762856 ) ) ;
#617 = ORIENTED_EDGE ( 'NONE', *, *, #640, .T. ) ;
#618 = DIRECTION ( 'NONE',  ( 1.000000000000000000, 0.000000000000000000, 0.000000000000000000 ) ) ;
#619 = PLANE ( 'NONE',  #504 ) ;
#620 = CIRCLE ( 'NONE', #156, 2.250000000000001776 ) ;
#621 = ORIENTED_EDGE ( 'NONE', *, *, #64, .T. ) ;
#622 = ORIENTED_EDGE ( 'NONE', *, *, #579, .T. ) ;
#623 = CARTESIAN_POINT ( 'NONE',  ( 71.24999999999991473, 8.499999999999980460, 3.000000000000002665 ) ) ;
#624 = ORIENTED_EDGE ( 'NONE', *, *, #223, .F. ) ;
#625 = ORIENTED_EDGE ( 'NONE', *, *, #646, .T. ) ;
#626 = DIRECTION ( 'NONE',  ( -1.000000000000000000, 0.000000000000000000, 0.000000000000000000 ) ) ;
#627 = CARTESIAN_POINT ( 'NONE',  ( 40.00000000000000711, 0.000000000000000000, 3.000000000000000000 ) ) ;
#628 = ORIENTED_EDGE ( 'NONE', *, *, #646, .F. ) ;
#629 = ORIENTED_EDGE ( 'NONE', *, *, #286, .T. ) ;
#630 = VECTOR ( 'NONE', #6, 1000.000000000000000 ) ;
#631 = DIRECTION ( 'NONE',  ( 0.000000000000000000, 0.000000000000000000, -1.000000000000000000 ) ) ;
#632 = ORIENTED_EDGE ( 'NONE', *, *, #442, .F. ) ;
#633 = VECTOR ( 'NONE', #768, 1000.000000000000000 ) ;
#634 = VERTEX_POINT ( 'NONE', #346 ) ;
#635 = EDGE_CURVE ( 'NONE', #482, #413, #327, .T. ) ;
#636 = COORDINATED_UNIVERSAL_TIME_OFFSET ( 8, 0, .AHEAD. ) ;
#637 = CARTESIAN_POINT ( 'NONE',  ( 66.74999999999990052, 8.499999999999980460, 3.000000000000002665 ) ) ;
#638 = CARTESIAN_POINT ( 'NONE',  ( 0.000000000000000000, 0.000000000000000000, 3.000000000000000000 ) ) ;
#639 = PERSON_AND_ORGANIZATION ( #289, #195 ) ;
#640 = EDGE_CURVE ( 'NONE', #322, #756, #500, .T. ) ;
#641 = CARTESIAN_POINT ( 'NONE',  ( 0.000000000000000000, 18.00000000000000000, -5.000000000000000000 ) ) ;
#642 = CARTESIAN_POINT ( 'NONE',  ( 0.000000000000000000, -8.000000000000001776, -17.00000000000000000 ) ) ;
#643 = ORIENTED_EDGE ( 'NONE', *, *, #747, .T. ) ;
#644 = PERSON_AND_ORGANIZATION ( #289, #195 ) ;
#645 = CARTESIAN_POINT ( 'NONE',  ( 0.000000000000000000, -8.000000000000000000, 3.000000000000000888 ) ) ;
#646 = EDGE_CURVE ( 'NONE', #482, #3, #224, .T. ) ;
#647 = VECTOR ( 'NONE', #393, 1000.000000000000000 ) ;
#648 = DIRECTION ( 'NONE',  ( 0.000000000000000000, 1.000000000000000000, -0.000000000000000000 ) ) ;
#649 = EDGE_LOOP ( 'NONE', ( #495, #543, #715, #128 ) ) ;
#650 = CARTESIAN_POINT ( 'NONE',  ( 33.00000000000016342, -8.000000000000001776, -7.999999999999762856 ) ) ;
#651 = DIRECTION ( 'NONE',  ( 0.000000000000000000, -1.000000000000000000, 8.673617379884034239E-17 ) ) ;
#652 = APPROVAL_PERSON_ORGANIZATION ( #344, #468, #196 ) ;
#653 = VERTEX_POINT ( 'NONE', #349 ) ;
#654 = CARTESIAN_POINT ( 'NONE',  ( 5.000000000000164313, 0.000000000000000000, -7.999999999999792166 ) ) ;
#655 = EDGE_CURVE ( 'NONE', #678, #653, #605, .T. ) ;
#656 = CARTESIAN_POINT ( 'NONE',  ( 40.00000000000000711, 1.999999999999998224, -17.00000000000000000 ) ) ;
#657 = AXIS2_PLACEMENT_3D ( 'NONE', #650, #218, #94 ) ;
#658 = VECTOR ( 'NONE', #42, 1000.000000000000000 ) ;
#659 = EDGE_CURVE ( 'NONE', #305, #322, #298, .T. ) ;
#660 = DIRECTION ( 'NONE',  ( 0.000000000000000000, 0.000000000000000000, 1.000000000000000000 ) ) ;
#661 = DIRECTION ( 'NONE',  ( 0.000000000000000000, 0.000000000000000000, -1.000000000000000000 ) ) ;
#662 = ORIENTED_EDGE ( 'NONE', *, *, #35, .F. ) ;
#663 = CYLINDRICAL_SURFACE ( 'NONE', #518, 1.899999999999991918 ) ;
#664 = ADVANCED_FACE ( 'NONE', ( #774 ), #663, .F. ) ;
#665 = CARTESIAN_POINT ( 'NONE',  ( 0.000000000000000000, 18.00000000000000000, -5.000000000000000000 ) ) ;
#666 = AXIS2_PLACEMENT_3D ( 'NONE', #654, #648, #584 ) ;
#667 = VERTEX_POINT ( 'NONE', #358 ) ;
#668 = CARTESIAN_POINT ( 'NONE',  ( 230.0000000000000000, 18.00000000000000000, 3.000000000000000000 ) ) ;
#669 = CARTESIAN_POINT ( 'NONE',  ( 225.2499999999997442, 8.499999999999980460, 0.000000000000000000 ) ) ;
#670 = ADVANCED_FACE ( 'NONE', ( #594, #600, #724 ), #221, .T. ) ;
#671 = EDGE_LOOP ( 'NONE', ( #586, #378 ) ) ;
#672 = CIRCLE ( 'NONE', #292, 2.250000000000001776 ) ;
#673 = ORIENTED_EDGE ( 'NONE', *, *, #462, .F. ) ;
#674 = DIRECTION ( 'NONE',  ( -1.000000000000000000, 0.000000000000000000, 0.000000000000000000 ) ) ;
#675 = ORIENTED_EDGE ( 'NONE', *, *, #701, .F. ) ;
#676 = ORIENTED_EDGE ( 'NONE', *, *, #579, .F. ) ;
#677 = DIRECTION ( 'NONE',  ( -0.000000000000000000, -1.000000000000000000, 8.673617379884034239E-17 ) ) ;
#678 = VERTEX_POINT ( 'NONE', #232 ) ;
#679 = PLANE ( 'NONE',  #373 ) ;
#680 = CARTESIAN_POINT ( 'NONE',  ( 87.99999999999977263, 8.499999999999980460, 3.000000000000002665 ) ) ;
#681 = EDGE_LOOP ( 'NONE', ( #624, #461 ) ) ;
#682 = EDGE_LOOP ( 'NONE', ( #676, #751, #69, #328 ) ) ;
#683 = VECTOR ( 'NONE', #13, 1000.000000000000000 ) ;
#684 = DIRECTION ( 'NONE',  ( -1.000000000000000000, 0.000000000000000000, -0.000000000000000000 ) ) ;
#685 = VECTOR ( 'NONE', #538, 1000.000000000000000 ) ;
#686 = ORIENTED_EDGE ( 'NONE', *, *, #614, .F. ) ;
#687 = ORIENTED_EDGE ( 'NONE', *, *, #348, .F. ) ;
#688 = DIRECTION ( 'NONE',  ( 0.000000000000000000, -0.000000000000000000, -1.000000000000000000 ) ) ;
#689 = CARTESIAN_POINT ( 'NONE',  ( 230.0000000000000000, -8.000000000000001776, -17.00000000000000000 ) ) ;
#690 = ADVANCED_FACE ( 'NONE', ( #483 ), #596, .F. ) ;
#691 = ORIENTED_EDGE ( 'NONE', *, *, #229, .T. ) ;
#692 = EDGE_LOOP ( 'NONE', ( #465, #112, #673, #385, #312 ) ) ;
#693 = LINE ( 'NONE', #627, #104 ) ;
#694 = ORIENTED_EDGE ( 'NONE', *, *, #258, .F. ) ;
#695 = ADVANCED_FACE ( 'NONE', ( #226 ), #414, .F. ) ;
#696 = ORIENTED_EDGE ( 'NONE', *, *, #549, .T. ) ;
#697 = CARTESIAN_POINT ( 'NONE',  ( 0.000000000000000000, 18.00000000000000000, 0.000000000000000000 ) ) ;
#698 = DIRECTION ( 'NONE',  ( 0.000000000000000000, 0.000000000000000000, -1.000000000000000000 ) ) ;
#699 = VECTOR ( 'NONE', #478, 1000.000000000000000 ) ;
#700 = EDGE_LOOP ( 'NONE', ( #271, #792, #438, #409 ) ) ;
#701 = EDGE_CURVE ( 'NONE', #305, #426, #672, .T. ) ;
#702 = MECHANICAL_CONTEXT ( 'NONE', #345, 'mechanical' ) ;
#703 = FACE_OUTER_BOUND ( 'NONE', #304, .T. ) ;
#704 = CARTESIAN_POINT ( 'NONE',  ( 33.00000000000016342, -8.000000000000000000, -6.099999999999766942 ) ) ;
#705 = DIRECTION ( 'NONE',  ( 0.000000000000000000, 1.000000000000000000, -0.000000000000000000 ) ) ;
#706 = CARTESIAN_POINT ( 'NONE',  ( 230.0000000000000000, 0.000000000000000000, 2.890309144481143679E-15 ) ) ;
#707 = ORIENTED_EDGE ( 'NONE', *, *, #229, .F. ) ;
#708 =( LENGTH_UNIT ( ) NAMED_UNIT ( * ) SI_UNIT ( .MILLI., .METRE. ) );
#709 = DIRECTION ( 'NONE',  ( -0.000000000000000000, 8.673617379884034239E-17, 1.000000000000000000 ) ) ;
#710 = VECTOR ( 'NONE', #532, 1000.000000000000000 ) ;
#711 = LINE ( 'NONE', #340, #496 ) ;
#712 = FACE_OUTER_BOUND ( 'NONE', #261, .T. ) ;
#713 = CARTESIAN_POINT ( 'NONE',  ( 5.000000000000164313, -8.000000000000001776, -7.999999999999792166 ) ) ;
#714 = ADVANCED_FACE ( 'NONE', ( #796 ), #679, .F. ) ;
#715 = ORIENTED_EDGE ( 'NONE', *, *, #253, .T. ) ;
#716 = CARTESIAN_POINT ( 'NONE',  ( 230.0000000000000000, 0.000000000000000000, -17.00000000000000000 ) ) ;
#717 = EDGE_LOOP ( 'NONE', ( #390, #318, #794, #194, #65, #114, #530, #691 ) ) ;
#718 = DIRECTION ( 'NONE',  ( -0.000000000000000000, -0.000000000000000000, -1.000000000000000000 ) ) ;
#719 = DIRECTION ( 'NONE',  ( -0.000000000000000000, -0.000000000000000000, -1.000000000000000000 ) ) ;
#720 = AXIS2_PLACEMENT_3D ( 'NONE', #689, #611, #684 ) ;
#721 = EDGE_CURVE ( 'NONE', #505, #60, #742, .T. ) ;
#722 = DIRECTION ( 'NONE',  ( -0.000000000000000000, -1.000000000000000000, -0.000000000000000000 ) ) ;
#723 = CARTESIAN_POINT ( 'NONE',  ( 68.99999999999991473, 8.499999999999980460, 3.000000000000002665 ) ) ;
#724 = FACE_OUTER_BOUND ( 'NONE', #28, .T. ) ;
#725 = PLANE ( 'NONE',  #454 ) ;
#726 = VERTEX_POINT ( 'NONE', #429 ) ;
#727 = LINE ( 'NONE', #302, #23 ) ;
#728 = CYLINDRICAL_SURFACE ( 'NONE', #219, 1.899999999999991918 ) ;
#729 = VECTOR ( 'NONE', #142, 1000.000000000000000 ) ;
#730 = VERTEX_POINT ( 'NONE', #379 ) ;
#731 = VECTOR ( 'NONE', #116, 1000.000000000000000 ) ;
#732 = CARTESIAN_POINT ( 'NONE',  ( 220.7499999999997442, 8.499999999999980460, 0.000000000000000000 ) ) ;
#733 = DIRECTION ( 'NONE',  ( -0.000000000000000000, -1.000000000000000000, -0.000000000000000000 ) ) ;
#734 = CARTESIAN_POINT ( 'NONE',  ( 230.0000000000000000, -8.000000000000000000, 3.000000000000000888 ) ) ;
#735 = ADVANCED_FACE ( 'NONE', ( #610 ), #48, .F. ) ;
#736 = DIRECTION ( 'NONE',  ( -1.000000000000000000, 0.000000000000000000, 0.000000000000000000 ) ) ;
#737 = CARTESIAN_POINT ( 'NONE',  ( 230.0000000000000000, 19.99999999999999645, 3.000000000000000000 ) ) ;
#738 = LINE ( 'NONE', #704, #38 ) ;
#739 = PRODUCT ( '\X2\76d65b50\X0\', '\X2\76d65b50\X0\', '', ( #702 ) ) ;
#740 = VERTEX_POINT ( 'NONE', #369 ) ;
#741 = UNCERTAINTY_MEASURE_WITH_UNIT (LENGTH_MEASURE( 1.000000000000000082E-05 ), #708, 'distance_accuracy_value', 'NONE');
#742 = LINE ( 'NONE', #187, #110 ) ;
#743 = DIRECTION ( 'NONE',  ( -0.000000000000000000, -0.000000000000000000, -1.000000000000000000 ) ) ;
#744 = ORIENTED_EDGE ( 'NONE', *, *, #436, .F. ) ;
#745 = ORIENTED_EDGE ( 'NONE', *, *, #659, .T. ) ;
#746 = CARTESIAN_POINT ( 'NONE',  ( 0.000000000000000000, 0.000000000000000000, 3.000000000000000000 ) ) ;
#747 = EDGE_CURVE ( 'NONE', #539, #740, #771, .T. ) ;
#748 = CARTESIAN_POINT ( 'NONE',  ( 87.99999999999977263, 8.499999999999980460, 3.000000000000002665 ) ) ;
#749 = VECTOR ( 'NONE', #595, 1000.000000000000000 ) ;
#750 = ORIENTED_EDGE ( 'NONE', *, *, #40, .T. ) ;
#751 = ORIENTED_EDGE ( 'NONE', *, *, #395, .F. ) ;
#752 = CC_DESIGN_SECURITY_CLASSIFICATION ( #470, ( #753 ) ) ;
#753 = PRODUCT_DEFINITION_FORMATION_WITH_SPECIFIED_SOURCE ( 'ä»', '', #739, .NOT_KNOWN. ) ;
#754 = DIRECTION ( 'NONE',  ( 0.000000000000000000, 0.000000000000000000, -1.000000000000000000 ) ) ;
#755 = CYLINDRICAL_SURFACE ( 'NONE', #149, 2.250000000000001776 ) ;
#756 = VERTEX_POINT ( 'NONE', #732 ) ;
#757 = COORDINATED_UNIVERSAL_TIME_OFFSET ( 8, 0, .AHEAD. ) ;
#758 = CARTESIAN_POINT ( 'NONE',  ( 33.00000000000016342, 0.000000000000000000, -7.999999999999762856 ) ) ;
#759 = CARTESIAN_POINT ( 'NONE',  ( 85.74999999999977263, 8.499999999999980460, 3.000000000000002665 ) ) ;
#760 = ORIENTED_EDGE ( 'NONE', *, *, #198, .T. ) ;
#761 = DIRECTION ( 'NONE',  ( -1.000000000000000000, 0.000000000000000000, 0.000000000000000000 ) ) ;
#762 = PRODUCT_DEFINITION ( 'æœ', '', #753, #56 ) ;
#763 = APPROVAL_DATE_TIME ( #330, #335 ) ;
#764 = CARTESIAN_POINT ( 'NONE',  ( 5.000000000000164313, -8.000000000000000000, -9.899999999999783640 ) ) ;
#765 = LINE ( 'NONE', #706, #604 ) ;
#766 = CALENDAR_DATE ( 2025, 8, 12 ) ;
#767 = CARTESIAN_POINT ( 'NONE',  ( 0.000000000000000000, 0.000000000000000000, -6.938893903907227392E-16 ) ) ;
#768 = DIRECTION ( 'NONE',  ( -0.000000000000000000, -1.000000000000000000, -0.000000000000000000 ) ) ;
#769 = EDGE_CURVE ( 'NONE', #667, #317, #51, .T. ) ;
#770 = DIRECTION ( 'NONE',  ( -1.000000000000000000, 0.000000000000000000, 0.000000000000000000 ) ) ;
#771 = CIRCLE ( 'NONE', #424, 2.250000000000001776 ) ;
#772 = LINE ( 'NONE', #606, #296 ) ;
#773 = CIRCLE ( 'NONE', #405, 2.250000000000001776 ) ;
#774 = FACE_OUTER_BOUND ( 'NONE', #700, .T. ) ;
#775 = CC_DESIGN_PERSON_AND_ORGANIZATION_ASSIGNMENT ( #266, #10, ( #762 ) ) ;
#776 = LINE ( 'NONE', #665, #699 ) ;
#777 = ORIENTED_EDGE ( 'NONE', *, *, #474, .F. ) ;
#778 = DIRECTION ( 'NONE',  ( 0.000000000000000000, 0.000000000000000000, -1.000000000000000000 ) ) ;
#779 = EDGE_CURVE ( 'NONE', #125, #726, #564, .T. ) ;
#780 = AXIS2_PLACEMENT_3D ( 'NONE', #161, #163, #660 ) ;
#781 = LINE ( 'NONE', #716, #731 ) ;
#782 = EDGE_CURVE ( 'NONE', #185, #317, #727, .T. ) ;
#783 = DIRECTION ( 'NONE',  ( -0.000000000000000000, -0.000000000000000000, -1.000000000000000000 ) ) ;
#784 = DIRECTION ( 'NONE',  ( 0.000000000000000000, 0.000000000000000000, -1.000000000000000000 ) ) ;
#785 = CARTESIAN_POINT ( 'NONE',  ( 5.000000000000164313, -8.000000000000001776, -9.899999999999780087 ) ) ;
#786 = ORIENTED_EDGE ( 'NONE', *, *, #452, .F. ) ;
#787 = DIRECTION ( 'NONE',  ( -0.000000000000000000, -1.000000000000000000, -0.000000000000000000 ) ) ;
#788 = VECTOR ( 'NONE', #719, 1000.000000000000000 ) ;
#789 = CARTESIAN_POINT ( 'NONE',  ( 5.000000000000164313, 0.000000000000000000, -9.899999999999783640 ) ) ;
#790 = EDGE_CURVE ( 'NONE', #667, #471, #506, .T. ) ;
#791 = DIRECTION ( 'NONE',  ( -1.000000000000000000, 0.000000000000000000, 0.000000000000000000 ) ) ;
#792 = ORIENTED_EDGE ( 'NONE', *, *, #513, .T. ) ;
#793 = AXIS2_PLACEMENT_3D ( 'NONE', #333, #469, #336 ) ;
#794 = ORIENTED_EDGE ( 'NONE', *, *, #91, .T. ) ;
#795 = EDGE_LOOP ( 'NONE', ( #368, #607 ) ) ;
#796 = FACE_OUTER_BOUND ( 'NONE', #717, .T. ) ;
ENDSEC;
END-ISO-10303-21;
